<?xml version="1.0" encoding="UTF-8"?>
<svg version="1.1" xmlns="http://www.w3.org/2000/svg" width="2048" height="440">
<path d="M0 0 C-1.94061779 6.03305783 -4.0939338 11.93240251 -6.484375 17.80078125 C-6.81663086 18.62230179 -7.14888672 19.44382233 -7.49121094 20.29023743 C-8.57445994 22.96555841 -9.66203138 25.63909522 -10.75 28.3125 C-11.51338552 30.19383177 -12.27673131 32.07517965 -13.04003906 33.95654297 C-18.4870015 47.36352745 -24.0271072 60.73028987 -29.61425781 74.0793457 C-33.63694675 83.6954758 -37.59326831 93.33621598 -41.5 103 C-46.40457161 115.13158658 -51.40980069 127.21854478 -56.45800781 139.29101562 C-61.13863831 150.48819298 -65.74534598 161.71265014 -70.29400635 172.96401978 C-74.58321594 183.56869352 -78.95996061 194.13464554 -83.375 204.6875 C-88.81761318 217.69708309 -94.15879693 230.74427418 -99.43695068 243.82138062 C-104.35246689 255.99497122 -109.36596853 268.12452787 -114.43548584 280.23471069 C-119.24515459 291.72897455 -123.96189447 303.25804707 -128.625 314.8125 C-133.4710463 326.81997451 -138.39683047 338.78880565 -143.42932129 350.71929932 C-147.48812286 360.34497795 -151.45970712 370.00260026 -155.375 379.6875 C-160.24718791 391.73574371 -165.19241574 403.75217502 -170.1875 415.75 C-170.51586853 416.54006439 -170.84423706 417.33012878 -171.18255615 418.14413452 C-172.11355769 420.38323395 -173.04662269 422.62146065 -173.98046875 424.859375 C-174.39520195 425.85711693 -174.39520195 425.85711693 -174.8183136 426.87501526 C-176.11802807 429.98181829 -177.49212124 432.98424247 -179 436 C-224.54 436 -270.08 436 -317 436 C-316.20589713 431.23538278 -315.34627025 427.9668652 -313.55078125 423.609375 C-313.17763542 422.6964846 -313.17763542 422.6964846 -312.79695129 421.76515198 C-311.97466854 419.75763493 -311.14360509 417.75387885 -310.3125 415.75 C-309.72519107 414.32078566 -309.13845105 412.89133742 -308.55224609 411.46166992 C-307.013953 407.71433996 -305.46827205 403.97010644 -303.92034912 400.22674561 C-302.46078256 396.6953863 -301.00582964 393.16212906 -299.55078125 389.62890625 C-298.98138174 388.24641194 -298.41196439 386.86392497 -297.8425293 385.48144531 C-297.56001312 384.79554321 -297.27749695 384.10964111 -296.98641968 383.4029541 C-296.11634007 381.29148447 -295.24536203 379.18038707 -294.37426758 377.06933594 C-290.04128701 366.56293318 -285.7613619 356.03562981 -281.5 345.5 C-276.37742874 332.8351488 -271.21050996 320.18967167 -265.99746704 307.5617981 C-261.59190347 296.88886446 -257.23264685 286.19811386 -252.90136719 275.49484253 C-247.77176627 262.82600117 -242.5219282 250.20820446 -237.26757812 237.59069824 C-232.32807151 225.72063833 -227.53022475 213.81124168 -222.88354492 201.82348633 C-219.35871303 192.78355688 -215.55055201 183.88229194 -211.68798828 174.98242188 C-207.64335558 165.61535839 -203.82642744 156.17007661 -200.0625 146.6875 C-195.66197804 135.61772828 -191.23597191 124.55997867 -186.66622925 113.55874634 C-186.10181897 112.19768534 -185.54002441 110.83553638 -184.98098755 109.47225952 C-184.20955918 107.59303888 -183.42730121 105.71827477 -182.64453125 103.84375 C-182.20471924 102.78349609 -181.76490723 101.72324219 -181.31176758 100.63085938 C-179.01549954 96.02550214 -176.14742297 94.37335358 -171.65234375 91.99609375 C-170.58161621 91.42560303 -169.51088867 90.8551123 -168.40771484 90.26733398 C-167.26254395 89.66348877 -166.11737305 89.05964355 -164.9375 88.4375 C-162.55212457 87.16902892 -160.16875546 85.89680486 -157.78515625 84.625 C-156.90011414 84.15379982 -156.90011414 84.15379982 -155.99719238 83.67308044 C-151.25920165 81.14800357 -146.55820335 78.56244179 -141.875 75.9375 C-134.94957681 72.06327775 -127.98228149 68.27073781 -121 64.5 C-113.25640785 60.31773257 -105.53878478 56.09518471 -97.85620117 51.80200195 C-91.70570106 48.37301065 -85.51128354 45.02823582 -79.3125 41.6875 C-71.44555455 37.44586072 -63.63717279 33.11775157 -55.875 28.6875 C-45.48815617 22.76128634 -34.95716075 17.12562421 -24.37646484 11.55541992 C-18.13235842 8.25854702 -12.00802757 4.8902926 -6.0793457 1.04663086 C-4 0 -4 0 0 0 Z " fill="#FF3D33" transform="translate(644,0)"/>
<path d="M0 0 C-0.67749779 4.36621269 -2.20559153 8.2322409 -3.921875 12.2734375 C-4.21790115 12.98079544 -4.51392731 13.68815338 -4.81892395 14.41694641 C-5.79157113 16.73816278 -6.77073973 19.0565667 -7.75 21.375 C-8.43393317 23.00348544 -9.11744017 24.63214993 -9.80053711 26.26098633 C-11.19452487 29.58305277 -12.59105522 32.90403214 -13.98974609 36.22412109 C-15.79809388 40.51769749 -17.59825695 44.81464211 -19.39453125 49.11328125 C-25.13468445 62.84385959 -30.92688445 76.55166067 -36.75076294 90.24691772 C-41.38321026 101.14426602 -45.95580391 112.06558318 -50.5 123 C-55.33050151 134.62333576 -60.19903296 146.22928739 -65.125 157.8125 C-69.56782911 168.2600009 -73.99030331 178.71545749 -78.375 189.1875 C-83.90876282 202.40349531 -89.46230876 215.61105425 -95.02954102 228.81298828 C-98.30306383 236.57819254 -101.56562944 244.34762955 -104.80078125 252.12890625 C-105.68955353 254.2628366 -106.57853447 256.39667993 -107.4675293 258.53051758 C-108.2904273 260.50941965 -109.10913861 262.49001844 -109.92773438 264.47070312 C-110.66926758 266.25057617 -110.66926758 266.25057617 -111.42578125 268.06640625 C-111.85286377 269.09709229 -112.27994629 270.12777832 -112.7199707 271.18969727 C-115.15750782 276.54130699 -115.15750782 276.54130699 -117 279 C-119.52434063 279.61523914 -119.52434063 279.61523914 -122.59977722 279.60127258 C-124.3476931 279.61158257 -124.3476931 279.61158257 -126.13092041 279.62210083 C-127.4105365 279.60412445 -128.69015259 279.58614807 -130.00854492 279.56762695 C-131.36857552 279.56621671 -132.72860993 279.56700801 -134.08863831 279.56983948 C-137.78289025 279.57127601 -141.47633296 279.5418493 -145.17039657 279.50696969 C-149.03008548 279.47574488 -152.88979228 279.47277854 -156.74958801 279.46684265 C-164.05952298 279.4512927 -171.36908473 279.410249 -178.67885524 279.3600952 C-187.00035822 279.30423727 -195.32187888 279.27672424 -203.64352262 279.25161803 C-220.76256441 279.19933387 -237.88124276 279.11136959 -255 279 C-254.35190387 273.96847787 -253.35185548 269.96979098 -251.26171875 265.3359375 C-250.98529037 264.71508774 -250.708862 264.09423798 -250.42405701 263.45457458 C-249.82945265 262.120791 -249.23105867 260.78869146 -248.62921143 259.4581604 C-247.00592532 255.86728824 -245.41255696 252.2631519 -243.81640625 248.66015625 C-243.32826447 247.56084023 -243.32826447 247.56084023 -242.83026123 246.4393158 C-239.80746637 239.61208469 -236.94889635 232.72451288 -234.125 225.8125 C-229.61114559 214.79477146 -224.93616064 203.85583221 -220.1875 192.9375 C-214.46521024 179.77905074 -208.87225394 166.57375064 -203.38250732 153.31668091 C-198.44414839 141.39582365 -193.38269338 129.53427632 -188.21020508 117.71313477 C-187.71415771 116.57803467 -187.21811035 115.44293457 -186.70703125 114.2734375 C-186.23217285 113.20448242 -185.75731445 112.13552734 -185.26806641 111.03417969 C-183.97378899 108.06479132 -183.97378899 108.06479132 -183.10302734 105.16113281 C-181.08415026 98.86898544 -178.6289358 96.41382436 -172.77880859 93.35986328 C-171.86180176 92.9111084 -170.94479492 92.46235352 -170 92 C-168.19117761 91.01429526 -166.38522383 90.02331002 -164.58203125 89.02734375 C-162.65976147 87.99570346 -160.73654531 86.96582508 -158.8125 85.9375 C-150.81663727 81.63904638 -142.88067671 77.25585966 -135 72.75 C-125.65757501 67.4196795 -116.19590428 62.3380034 -106.6875 57.3125 C-96.20050965 51.76914029 -85.75541502 46.17073185 -75.41552734 40.35644531 C-60.0826319 31.74622022 -44.69458176 23.24931619 -29.19140625 14.94970703 C-21.82736133 11.00289715 -14.50920941 6.98235444 -7.25170898 2.8425293 C-2.21452204 0 -2.21452204 0 0 0 Z " fill="#FF3D33" transform="translate(425,157)"/>
<path d="M0 0 C15.84 0 31.68 0 48 0 C53.62483874 12.37464522 53.62483874 12.37464522 55.44433594 17.28393555 C55.8553656 18.38686447 56.26639526 19.4897934 56.68988037 20.62614441 C57.33065521 22.36387871 57.33065521 22.36387871 57.984375 24.13671875 C58.44426819 25.37380081 58.90416138 26.61088287 59.37799072 27.88545227 C60.59452682 31.15785824 61.80637432 34.43197981 63.01708984 37.70654297 C64.21969859 40.95703176 65.42631613 44.20603074 66.6328125 47.45507812 C68.05196962 51.27735476 69.4708688 55.09972505 70.88781738 58.92282104 C75.22705119 70.62705199 79.60597395 82.31624291 84 94 C86.33026957 90.50459564 87.69321694 86.86479249 89.16796875 82.9609375 C89.47980606 82.14351074 89.79164337 81.32608398 90.1129303 80.48388672 C91.14179385 77.7824292 92.16476674 75.07878372 93.1875 72.375 C93.90129314 70.49687941 94.61516131 68.61878733 95.32910156 66.74072266 C99.03311726 56.9747441 102.68092333 47.18969243 106.25390625 37.375 C106.59274338 36.44458893 106.93158051 35.51417786 107.28068542 34.55557251 C108.90437688 30.09139647 110.52028823 25.62457875 112.12573242 21.15380859 C112.71398774 19.52700296 113.30228315 17.90021184 113.890625 16.2734375 C114.14731461 15.55115967 114.40400421 14.82888184 114.66847229 14.0847168 C116.46983311 9.11950631 118.60209802 4.79580395 121 0 C137.17 0 153.34 0 170 0 C177.96927642 46.49022446 177.96927642 46.49022446 181.35839844 66.31787109 C181.68167303 68.20908251 181.68167303 68.20908251 182.01147842 70.13850021 C182.88232196 75.23326279 183.75313334 80.32803084 184.62372589 85.4228363 C186.93333082 98.93814623 189.24669465 112.4527618 191.58069992 125.96388149 C192.75184521 132.74342291 193.91798395 139.52380745 195.07921219 146.30505466 C195.72496591 150.07425186 196.37392826 153.84283315 197.03063965 157.61013794 C197.74347969 161.69943581 198.44273122 165.79093755 199.140625 169.8828125 C199.34796265 171.05771744 199.55530029 172.23262238 199.7689209 173.44313049 C199.94862427 174.51006638 200.12832764 175.57700226 200.31347656 176.67626953 C200.55061371 178.0493779 200.55061371 178.0493779 200.7925415 179.45022583 C201.01446456 182.17777703 200.66231007 184.35608352 200 187 C193.18238106 187.0252689 186.36477411 187.04283244 179.54711914 187.05493164 C177.22582549 187.05997333 174.90453503 187.06680651 172.58325195 187.07543945 C169.25471205 187.08751225 165.92621398 187.09322979 162.59765625 187.09765625 C161.03048607 187.10539818 161.03048607 187.10539818 159.43165588 187.11329651 C158.47073532 187.11337204 157.50981476 187.11344757 156.51977539 187.11352539 C155.66928116 187.115746 154.81878693 187.11796661 153.94252014 187.12025452 C152 187 152 187 151 186 C150.45496603 182.93493903 149.96580419 179.87726923 149.50952148 176.79858398 C149.3630719 175.83283447 149.21662231 174.86708496 149.06573486 173.87207031 C148.58025575 170.66399142 148.10066699 167.45506038 147.62109375 164.24609375 C147.28657998 162.02786407 146.95170112 159.80968942 146.61647034 157.59156799 C145.73329073 151.74115691 144.85509449 145.89000813 143.97790527 140.03869629 C143.08265773 134.07287345 142.18273884 128.10775561 141.28320312 122.14257812 C139.51754145 110.42907383 137.75713922 98.71478555 136 87 C133.41366006 89.58633994 132.43922701 92.50581569 131.12109375 95.84765625 C130.8371022 96.55483795 130.55311066 97.26201965 130.26051331 97.9906311 C129.64133401 99.53353245 129.02440154 101.07733688 128.40942383 102.62191772 C126.74072601 106.81215795 125.05544631 110.99572083 123.37109375 115.1796875 C122.84157608 116.49651772 122.84157608 116.49651772 122.30136108 117.83995056 C117.93698716 128.67307921 113.44120511 139.45185579 108.93844604 150.22805786 C107.91562611 152.67608568 106.89468203 155.12488233 105.875 157.57421875 C105.5506044 158.35263626 105.2262088 159.13105377 104.89198303 159.93305969 C102.22261728 166.37691374 99.69567744 172.87263007 97.25732422 179.40739441 C95.21600881 184.78399119 95.21600881 184.78399119 93 187 C89.87675934 187.49748281 86.72092364 187.41658329 83.5625 187.4375 C82.69044922 187.47037109 81.81839844 187.50324219 80.91992188 187.53710938 C79.66211914 187.54774414 79.66211914 187.54774414 78.37890625 187.55859375 C77.22757202 187.57877563 77.22757202 187.57877563 76.05297852 187.59936523 C74 187 74 187 72.4440918 184.99780273 C70.6232001 181.2177978 69.04089364 177.38399535 67.515625 173.4765625 C67.01676537 172.21351036 67.01676537 172.21351036 66.50782776 170.92494202 C65.41739485 168.160039 64.33359873 165.39258777 63.25 162.625 C62.49202087 160.69888004 61.73379844 158.77285581 60.9753418 156.84692383 C55.23079607 142.23723456 49.57668985 127.5926602 43.99902344 112.91845703 C43.70680405 112.15278915 43.41458466 111.38712128 43.11351013 110.59825134 C42.58414204 109.21111379 42.05685062 107.82318003 41.53260803 106.43409729 C38.89598281 99.53666581 35.93179371 92.77562879 33 86 C32.81429947 87.25058701 32.62859894 88.50117401 32.43727112 89.78965759 C30.69068637 101.54819508 28.939764 113.30607945 27.18454075 125.06333065 C26.28220318 131.10854588 25.38142077 137.15398449 24.48413086 143.19995117 C23.61890463 149.02948471 22.74967395 154.85840804 21.87760735 160.68692207 C21.54482857 162.91595557 21.21351835 165.1452088 20.8836689 167.37467766 C20.42310334 170.48596717 19.95742487 173.59644981 19.49047852 176.70678711 C19.35381271 177.63826569 19.21714691 178.56974426 19.07633972 179.52944946 C18.11405216 185.88594784 18.11405216 185.88594784 17 187 C15.4651703 187.09319449 13.92607918 187.117458 12.38842773 187.11352539 C11.40748642 187.11344986 10.4265451 187.11337433 9.4158783 187.11329651 C8.3492244 187.10813522 7.2825705 187.10297394 6.18359375 187.09765625 C4.55430687 187.09553383 4.55430687 187.09553383 2.8921051 187.09336853 C-0.59279075 187.08775048 -4.07762342 187.07519492 -7.5625 187.0625 C-9.91861887 187.05748733 -12.27473874 187.05292402 -14.63085938 187.04882812 C-20.42059535 187.03777519 -26.21029116 187.02062335 -32 187 C-31.44355571 178.75494805 -30.40960308 170.70601699 -28.97802734 162.57006836 C-28.77454681 161.3889296 -28.57106628 160.20779083 -28.36141968 158.99085999 C-27.80685615 155.77738847 -27.24774617 152.56474867 -26.68668699 149.35240626 C-26.09068665 145.93262101 -25.50106218 142.5117366 -24.91079712 139.09095764 C-23.78630112 132.57931044 -22.65688882 126.06852722 -21.52535689 119.55809933 C-19.52779979 108.06434997 -17.53727559 96.56938179 -15.54988027 85.07387125 C-14.94629166 81.58266181 -14.34220477 78.0915403 -13.73690033 74.6006279 C-11.35953782 60.88753285 -9.0011282 47.17257382 -6.79785156 33.43017578 C-6.63296801 32.40322003 -6.46808445 31.37626429 -6.29820442 30.31818867 C-5.5495143 25.6416851 -4.81011606 20.96397606 -4.08554077 16.28367615 C-3.8326569 14.6820253 -3.5797017 13.08038571 -3.32666016 11.47875977 C-3.22002674 10.76843409 -3.11339333 10.05810841 -3.00352859 9.32625771 C-2.42801566 5.71796733 -1.66822158 3.33644316 0 0 Z " fill="#FFFFFF" transform="translate(1360,249)"/>
<path d="M0 0 C-0.61304275 5.33225535 -2.37482661 9.74073335 -4.47265625 14.62109375 C-4.82702255 15.46039932 -5.18138885 16.2997049 -5.54649353 17.16444397 C-6.31215148 18.9762037 -7.08069145 20.78674763 -7.85180664 22.59619141 C-9.9258363 27.46361573 -11.97873674 32.33996002 -14.03515625 37.21484375 C-14.45519928 38.208862 -14.87524231 39.20288025 -15.30801392 40.22702026 C-19.27473448 49.62323694 -23.14667798 59.05684844 -27 68.5 C-32.61248606 82.2402898 -38.31336184 95.94135823 -44.0625 109.625 C-50.05939046 123.89891272 -55.95644373 138.20834434 -61.74694824 152.56716919 C-66.35367301 163.98776778 -71.05757759 175.36186768 -75.85205078 186.70483398 C-79.20832694 194.6595971 -82.49330316 202.64137115 -85.7421875 210.640625 C-86.15109726 211.64616928 -86.56000702 212.65171356 -86.98130798 213.68772888 C-89.02232728 218.70796886 -91.05784022 223.73033399 -93.08520508 228.75610352 C-93.83133561 230.59399696 -94.57766403 232.43181007 -95.32421875 234.26953125 C-95.66633392 235.12319275 -96.0084491 235.97685425 -96.3609314 236.85638428 C-96.83908798 238.02925995 -96.83908798 238.02925995 -97.3269043 239.22583008 C-97.60302048 239.90954178 -97.87913666 240.59325348 -98.16362 241.29768372 C-99 243 -99 243 -101 245 C-103.4012928 245.24609566 -103.4012928 245.24609566 -106.47952271 245.24050903 C-108.22537659 245.24463303 -108.22537659 245.24463303 -110.00650024 245.24884033 C-111.28971161 245.24164978 -112.57292297 245.23445923 -113.89501953 245.22705078 C-115.25490307 245.22648686 -116.61478722 245.22680285 -117.97467041 245.22793579 C-121.67283416 245.22851106 -125.37086893 245.21672877 -129.06900263 245.20278788 C-132.93140165 245.19030937 -136.79380342 245.1891123 -140.65621948 245.18673706 C-147.97312033 245.1805138 -155.28996161 245.16409158 -162.6068362 245.14403808 C-170.93561538 245.12170535 -179.26439736 245.11069227 -187.59319901 245.10064721 C-204.72883383 245.07972605 -221.86441062 245.04453369 -239 245 C-238.26733276 240.11049028 -236.89539772 235.91822124 -234.9296875 231.40234375 C-234.61688843 230.66836868 -234.30408936 229.93439362 -233.98181152 229.17817688 C-233.30558265 227.5925221 -232.62654976 226.0080608 -231.94500732 224.42468262 C-230.10490232 220.14744351 -228.28750655 215.86056919 -226.46875 211.57421875 C-226.09438812 210.69307404 -225.72002625 209.81192932 -225.33432007 208.90408325 C-221.58419486 200.05835263 -217.96624751 191.16117458 -214.375 182.25 C-213.1358262 179.17822005 -211.89619707 176.10662414 -210.65625 173.03515625 C-210.35259521 172.28277679 -210.04894043 171.53039734 -209.73608398 170.75521851 C-207.64420676 165.57801757 -205.53271253 160.40918113 -203.40625 155.24609375 C-202.96608551 154.17718651 -202.96608551 154.17718651 -202.51702881 153.08668518 C-201.06416118 149.56203111 -199.60628522 146.03953577 -198.14160156 142.51977539 C-195.48001903 136.1111286 -192.86074788 129.69407894 -190.38461304 123.21110535 C-189.24967236 120.24166608 -188.09693403 117.27925838 -186.94390869 114.31680298 C-186.40542107 112.91664287 -185.87627573 111.51284754 -185.35736084 110.10531616 C-180.55025688 97.07246488 -180.55025688 97.07246488 -174.33056641 94.04370117 C-173.56147949 93.69927979 -172.79239258 93.3548584 -172 93 C-170.06880399 91.91947027 -168.14491594 90.8258256 -166.2265625 89.72265625 C-164.0275114 88.49995706 -161.82690908 87.28004483 -159.625 86.0625 C-158.43131191 85.40055915 -157.23762708 84.73861242 -156.04394531 84.07666016 C-146.89958373 79.01404732 -137.69897256 74.05937678 -128.48388672 69.12670898 C-121.51692151 65.38655425 -114.61665575 61.5458725 -107.75 57.625 C-98.28026374 52.21964932 -88.68940203 47.07144165 -79.05432129 41.9697876 C-69.87905767 37.10850859 -60.80274545 32.10765311 -51.7902832 26.94897461 C-42.4258173 21.6161221 -32.90991736 16.5743665 -23.375 11.5546875 C-17.10965114 8.2469758 -10.95629913 4.86134901 -4.98168945 1.04663086 C-3 0 -3 0 0 0 Z " fill="#FF3D33" transform="translate(720,191)"/>
<path d="M0 0 C16.17 0 32.34 0 49 0 C50 1 50 1 50.12025452 3.77772522 C50.11803391 5.01904709 50.11581329 6.26036896 50.11352539 7.53930664 C50.11367142 8.22220261 50.11381744 8.90509857 50.1139679 9.60868835 C50.11326876 11.87587614 50.1054764 14.14298274 50.09765625 16.41015625 C50.09579207 17.97814387 50.09436817 19.54613207 50.09336853 21.11412048 C50.08954334 25.24876503 50.07971306 29.38337466 50.06866455 33.51800537 C50.05665582 38.47475717 50.05204819 43.43152061 50.04621124 48.38828278 C50.03650129 55.92554616 50.01734477 63.46273288 50 71 C72.11 71 94.22 71 117 71 C117 47.57 117 24.14 117 0 C133.5 0 150 0 167 0 C167.02254466 24.23411804 167.04097779 48.46822763 167.05181217 72.70235348 C167.05697573 83.95383516 167.06401956 95.20530989 167.07543945 106.45678711 C167.08538447 116.2597854 167.09185299 126.06277865 167.09408849 135.86578184 C167.09539591 141.05980367 167.09848371 146.25381107 167.10573006 151.44782829 C167.11248741 156.33063221 167.11461755 161.21341568 167.11310768 166.09622383 C167.11338414 167.89380631 167.11539095 169.69138944 167.11920547 171.4889679 C167.12413828 173.93215962 167.12299983 176.37527287 167.12025452 178.81846619 C167.12462378 179.8996715 167.12462378 179.8996715 167.12908131 181.00271934 C167.11412121 185.88587879 167.11412121 185.88587879 166 187 C164.50129952 187.09831146 162.99801461 187.12798456 161.49609375 187.12939453 C160.05955444 187.13412277 160.05955444 187.13412277 158.59399414 187.13894653 C157.55235107 187.1369223 156.51070801 187.13489807 155.4375 187.1328125 C154.37587646 187.13376923 153.31425293 187.13472595 152.22045898 187.13571167 C149.97086528 187.13639364 147.72126963 187.13453819 145.47167969 187.13037109 C142.01492929 187.1250231 138.55830883 187.13031554 135.1015625 187.13671875 C132.92187471 187.13605797 130.742187 187.13477682 128.5625 187.1328125 C127.52085693 187.13483673 126.47921387 187.13686096 125.40600586 187.13894653 C124.44831299 187.13579437 123.49062012 187.13264221 122.50390625 187.12939453 C121.65642822 187.12859894 120.8089502 187.12780334 119.93579102 187.12698364 C118 187 118 187 117 186 C116.90507278 183.65746218 116.87440209 181.34453896 116.88647461 179.00170898 C116.88632858 178.27004517 116.88618256 177.53838135 116.8860321 176.7845459 C116.88673133 174.35503216 116.89452415 171.92559417 116.90234375 169.49609375 C116.9042079 167.81600486 116.90563181 166.13591543 116.90663147 164.45582581 C116.91045693 160.02526357 116.92028744 155.5947339 116.93133545 151.16418457 C116.94334345 145.85284346 116.94795168 140.54149148 116.95378876 135.23014069 C116.96349919 127.15340444 116.98265553 119.07673973 117 111 C94.89 111 72.78 111 50 111 C50.01160156 116.40246094 50.02320313 121.80492187 50.03515625 127.37109375 C50.04026307 130.7845064 50.04507684 134.19791437 50.04882812 137.61132812 C50.05481633 143.03459648 50.06191604 148.45784803 50.07543945 153.88110352 C50.08626914 158.2512283 50.09227701 162.62133508 50.09487724 166.99147224 C50.09673135 168.66250963 50.10035168 170.33354597 50.10573006 172.00457573 C50.11294159 174.33697551 50.1139909 176.66929993 50.11352539 179.00170898 C50.11712067 179.6994191 50.12071594 180.39712921 50.12442017 181.11598206 C50.11405216 185.88594784 50.11405216 185.88594784 49 187 C32.83 187 16.66 187 0 187 C0 125.29 0 63.58 0 0 Z " fill="#FFFFFF" transform="translate(941,249)"/>
<path d="M0 0 C10.30198354 -0.06992619 20.60390937 -0.12302557 30.90608311 -0.15543652 C35.69129971 -0.17100271 40.47635234 -0.1920728 45.26147461 -0.22631836 C49.89103209 -0.25923814 54.52043319 -0.27692077 59.1500988 -0.28463173 C60.90448399 -0.29011735 62.65886194 -0.30082676 64.4131794 -0.31719017 C82.41976855 -0.47826019 100.4503495 0.94513383 114.25390625 14.03125 C124.32002958 25.38097295 126.5601468 39.8335953 125.8203125 54.58203125 C124.37424222 67.96555927 119.02981922 77.17375909 109 86 C111.40133398 87.21261392 113.81515258 88.38989828 116.2421875 89.55078125 C117.45321855 90.13782789 118.66415368 90.72507243 119.875 91.3125 C120.47441406 91.59544922 121.07382813 91.87839844 121.69140625 92.16992188 C131.53519447 96.98505039 137.18133452 104.37569512 140.8125 114.6875 C145.4209386 130.24775738 143.43109866 147.02240764 135.72265625 161.24609375 C130.59814601 169.43833801 124.56352162 174.62428206 116 179 C115.28070312 179.37898437 114.56140625 179.75796875 113.8203125 180.1484375 C97.84482989 187.93136493 79.59572722 187.15625439 62.265625 187.1328125 C60.49298082 187.13348752 58.72033674 187.13445919 56.94769287 187.13571167 C53.26329655 187.13717472 49.5789247 187.13507621 45.89453125 187.13037109 C41.16323061 187.12462399 36.43198608 187.1279927 31.70068741 187.13394356 C28.05486624 187.13754414 24.40905856 187.13641379 20.763237 187.13381577 C19.01684309 187.13314769 17.27044797 187.13397076 15.52405548 187.13629532 C13.09966225 187.13881897 10.67536275 187.13498771 8.25097656 187.12939453 C7.16491623 187.13243088 7.16491623 187.13243088 6.05691528 187.13552856 C1.11427348 187.11427348 1.11427348 187.11427348 0 186 C-0.09766542 183.59671471 -0.12996828 181.22220648 -0.12025452 178.81846619 C-0.12110894 178.05807102 -0.12196337 177.29767586 -0.12284368 176.51423842 C-0.12450078 173.9468875 -0.11897339 171.37960083 -0.11352539 168.81225586 C-0.11324354 166.97961936 -0.11340121 165.14698275 -0.1139679 163.31434631 C-0.11425596 158.32281938 -0.10835777 153.33131625 -0.10139394 148.33979487 C-0.09516191 143.12940894 -0.09455672 137.91902251 -0.09336853 132.70863342 C-0.09025477 122.83468975 -0.08204078 112.96075709 -0.07201904 103.08681828 C-0.06085929 91.84879999 -0.0553478 80.61078119 -0.05032361 69.37275875 C-0.0398582 46.24849971 -0.02225789 23.12425047 0 0 Z M50 39 C50 49.89 50 60.78 50 72 C63.25490566 72.97393917 63.25490566 72.97393917 75 68 C78.93482158 64.16354896 79.30717934 60.79654252 79.5 55.5 C79.32570111 50.22295093 78.80800702 46.91092613 75 43 C67.06927725 37.250226 60.4023179 39 50 39 Z M50 110 C50 122.54 50 135.08 50 148 C69.25844631 148.78360041 69.25844631 148.78360041 87 142 C91.94035137 136.6796216 92.3538574 133.09164261 92.27734375 125.984375 C91.90333603 121.95984118 90.77391295 119.91990837 88 117 C77.17543276 108.34034621 63.10673353 110 50 110 Z " fill="#FFFFFF" transform="translate(1587,249)"/>
<path d="M0 0 C0.7839917 -0.0049649 1.5679834 -0.00992981 2.37573242 -0.01504517 C4.98804593 -0.02972779 7.60029836 -0.0364851 10.21264648 -0.04199219 C12.03376771 -0.04774644 13.85488893 -0.05350414 15.67601013 -0.05926514 C19.51040937 -0.06979768 23.34478754 -0.07562301 27.17919922 -0.07910156 C32.0507185 -0.0845374 36.92195129 -0.10844874 41.79338169 -0.13707352 C45.56594085 -0.15588501 49.33843424 -0.16091561 53.1110363 -0.16243744 C54.90366082 -0.16543198 56.6962851 -0.17334982 58.48886299 -0.18662262 C72.51633114 -0.28291855 87.3428491 -0.0749518 99.95874023 6.84863281 C100.95055298 7.37299927 100.95055298 7.37299927 101.96240234 7.90795898 C114.91920607 15.00437414 123.15962384 26.0680708 127.52124023 40.16113281 C131.89334784 56.42537309 130.45042643 74.49119068 122.36108398 89.34472656 C115.91380015 99.21413557 107.34271143 104.96845381 96.52124023 109.16113281 C94.53293985 109.55833894 92.53372836 109.91414563 90.52124023 110.16113281 C97.31007266 119.65729419 104.40511014 128.90950254 111.52124023 138.16113281 C112.42362258 139.33558233 113.32596912 140.51005935 114.22827148 141.68457031 C116.65727108 144.84495767 119.08901493 148.00322717 121.52124023 151.16113281 C124.85722022 155.49243797 128.19126241 159.82521231 131.52124023 164.16113281 C132.07344238 164.88010742 132.62564453 165.59908203 133.19458008 166.33984375 C134.97128327 168.65439413 136.74645671 170.97011021 138.52124023 173.28613281 C139.08560791 174.0212207 139.64997559 174.75630859 140.23144531 175.51367188 C140.76020264 176.20428711 141.28895996 176.89490234 141.83374023 177.60644531 C142.30424805 178.2202002 142.77475586 178.83395508 143.25952148 179.46630859 C146.52124023 183.84766532 146.52124023 183.84766532 146.52124023 187.16113281 C138.81974029 187.37022116 131.1185365 187.52985431 123.41483974 187.62744236 C119.83689657 187.67429817 116.26090297 187.7377701 112.68408203 187.84008789 C109.22796256 187.93832722 105.77370977 187.99177771 102.31630135 188.015028 C100.36432838 188.03960475 98.41310104 188.10979963 96.46226501 188.18080139 C87.75989973 188.18572819 87.75989973 188.18572819 84.204422 185.2447052 C82.3975597 182.95950621 80.93677602 180.70368059 79.52124023 178.16113281 C78.63499273 176.76464507 77.74617489 175.36978048 76.85327148 173.97753906 C76.00894701 172.56223376 75.16922891 171.144172 74.33374023 169.72363281 C70.60739282 163.50852761 66.75359939 157.42449009 62.70874023 151.41113281 C55.81375361 141.10347605 49.17911606 130.62350912 42.52124023 120.16113281 C42.19124023 142.27113281 41.86124023 164.38113281 41.52124023 187.16113281 C33.45686523 187.18175781 25.39249023 187.20238281 17.08374023 187.22363281 C14.53469971 187.23273682 11.98565918 187.24184082 9.359375 187.2512207 C7.3521327 187.2541397 5.34488981 187.25668829 3.33764648 187.25878906 C1.75832336 187.26646301 1.75832336 187.26646301 0.14709473 187.27429199 C-1.34497498 187.27447327 -1.34497498 187.27447327 -2.8671875 187.2746582 C-4.16957619 187.27798912 -4.16957619 187.27798912 -5.49827576 187.28138733 C-7.47875977 187.16113281 -7.47875977 187.16113281 -8.47875977 186.16113281 C-8.57863013 183.77275123 -8.61318383 181.41323116 -8.60574341 179.02429199 C-8.6073034 178.26868595 -8.60886339 177.5130799 -8.61047065 176.7345767 C-8.61448353 174.1833833 -8.61128991 171.63224861 -8.6081543 169.08105469 C-8.60950821 167.25989242 -8.61128809 165.43873044 -8.61346436 163.61756897 C-8.61803987 158.65696866 -8.61624865 153.69638904 -8.61308527 148.73578835 C-8.61056227 143.55656501 -8.61289904 138.37734351 -8.61447144 133.19812012 C-8.61629331 124.49877604 -8.61388636 115.79944044 -8.60913086 107.10009766 C-8.60368821 97.02708555 -8.60545085 86.95409368 -8.61095726 76.88108206 C-8.61548789 68.24926883 -8.61613919 59.61746171 -8.6135186 50.98564768 C-8.61195554 45.82294285 -8.61176283 40.66024756 -8.61505508 35.49754333 C-8.61793307 30.64509059 -8.61595945 25.79266406 -8.61016083 20.94021416 C-8.60883284 19.1539203 -8.609228 17.36762425 -8.61142349 15.58133125 C-8.61413348 13.15351507 -8.61075576 10.72578429 -8.60574341 8.29797363 C-8.60797413 7.58174316 -8.61020485 6.86551269 -8.61250317 6.12757826 C-8.58395691 -0.94183699 -6.33436084 0.00947433 0 0 Z M41.52124023 39.16113281 C41.52124023 53.68113281 41.52124023 68.20113281 41.52124023 83.16113281 C55.42387479 83.16113281 64.5174348 83.11180596 74.89624023 74.09863281 C78.03185619 68.43040397 79.24037943 61.32984483 78.08374023 54.91113281 C76.34363557 49.56811912 72.44462273 44.96109231 67.68139648 42.02832031 C59.06785774 38.14563108 51.15311446 39.16113281 41.52124023 39.16113281 Z " fill="#FFFFFF" transform="translate(1901.478759765625,248.8388671875)"/>
<path d="M0 0 C17.82 0 35.64 0 54 0 C57.2142565 7.71421559 60.34456119 15.39800701 63.265625 23.21875 C64.0726575 25.36694901 64.87970568 27.51514212 65.68676758 29.66333008 C66.10439362 30.77737213 66.52201965 31.89141418 66.95230103 33.03921509 C73.81219248 51.33360331 80.74092369 69.59889718 87.8125 87.8125 C93.84377139 103.35221955 99.76439576 118.92939472 105.58544922 134.54907227 C108.62073499 142.68834472 111.68606773 150.81382021 114.82421875 158.9140625 C115.13120697 159.7082962 115.43819519 160.50252991 115.75448608 161.3208313 C117.20876356 165.08251761 118.66926021 168.84153859 120.14160156 172.59619141 C120.65588632 173.92339129 121.16989983 175.25069632 121.68359375 176.578125 C122.13275146 177.72700195 122.58190918 178.87587891 123.04467773 180.05957031 C124 183 124 183 124 187 C106.84 187 89.68 187 72 187 C69.28029249 180.20073123 66.66874487 173.46059427 64.25 166.5625 C63.77626953 165.23702148 63.77626953 165.23702148 63.29296875 163.88476562 C62.99519531 163.03720703 62.69742187 162.18964844 62.390625 161.31640625 C62.12282227 160.55787354 61.85501953 159.79934082 61.57910156 159.01782227 C61 157 61 157 61 154 C38.89 154.33 16.78 154.66 -6 155 C-9.63 165.23 -13.26 175.46 -17 186 C-18 187 -18 187 -20.09437561 187.12025452 C-21.01592941 187.11803391 -21.93748322 187.11581329 -22.88696289 187.11352539 C-23.92796646 187.11344986 -24.96897003 187.11337433 -26.04151917 187.11329651 C-27.1737944 187.10813522 -28.30606964 187.10297394 -29.47265625 187.09765625 C-31.20182533 187.09553383 -31.20182533 187.09553383 -32.96592712 187.09336853 C-36.66481064 187.08775005 -40.36363464 187.07519442 -44.0625 187.0625 C-46.56315017 187.05748738 -49.06380129 187.05292406 -51.56445312 187.04882812 C-57.70965588 187.03777462 -63.85482369 187.02101852 -70 187 C-69.43049109 180.71490834 -67.43282142 175.36972389 -65.125 169.5234375 C-64.72888519 168.50196121 -64.33277039 167.48048492 -63.9246521 166.42805481 C-63.06973629 164.22564009 -62.21149653 162.02451332 -61.35028076 159.82455444 C-59.51380089 155.13290995 -57.6934252 150.43507402 -55.87240601 145.7374115 C-54.93830438 143.32781978 -54.00342295 140.91853021 -53.06777954 138.50953674 C-48.76686737 127.42830602 -44.5590421 116.31327097 -40.375 105.1875 C-32.7207117 84.85949926 -24.96212044 64.57228254 -17.17973328 44.29302979 C-14.78418002 38.04927996 -12.39547974 31.80294831 -10.01171875 25.5546875 C-9.70350189 24.74708481 -9.39528503 23.93948212 -9.07772827 23.10740662 C-7.33796692 18.54867044 -7.33796692 18.54867044 -5.60021973 13.98916626 C-4.83722029 11.98593173 -4.07302804 9.98315608 -3.30859375 7.98046875 C-2.88376709 6.86567139 -2.45894043 5.75087402 -2.02124023 4.60229492 C-1 2 -1 2 0 0 Z M26 60 C23.45242126 67.33152061 20.90752585 74.66396857 18.36450195 81.99707031 C17.49891057 84.49207701 16.63270304 86.98687003 15.76586914 89.48144531 C14.52067973 93.06519595 13.27770144 96.64970684 12.03515625 100.234375 C11.64658951 101.35116638 11.25802277 102.46795776 10.85768127 103.61859131 C10.49738327 104.65936829 10.13708527 105.70014526 9.76586914 106.77246094 C9.44832169 107.68735291 9.13077423 108.60224487 8.80360413 109.54486084 C8.10862288 111.66813973 7.54185478 113.8325809 7 116 C20.2 116 33.4 116 47 116 C44.96346161 108.53269257 42.82263733 101.33500386 40.20703125 94.08203125 C39.85613937 93.09877365 39.5052475 92.11551605 39.14372253 91.10246277 C38.03715205 88.0044201 36.92493421 84.90844133 35.8125 81.8125 C35.0549619 79.69479615 34.29779705 77.57695875 33.54101562 75.45898438 C31.69831708 70.30443968 29.85099485 65.15157093 28 60 C27.34 60 26.68 60 26 60 Z " fill="#FFFFFF" transform="translate(1195,249)"/>
<path d="M0 0 C35.31 0 70.62 0 107 0 C107 14.19 107 28.38 107 43 C88.19 43 69.38 43 50 43 C50 52.57 50 62.14 50 72 C67.82 72 85.64 72 104 72 C104 85.86 104 99.72 104 114 C86.18 114 68.36 114 50 114 C50 123.9 50 133.8 50 144 C68.81 144 87.62 144 107 144 C107.020625 150.909375 107.04125 157.81875 107.0625 164.9375 C107.071604 167.12109131 107.08070801 169.30468262 107.09008789 171.55444336 C107.09300698 173.2745762 107.09555555 174.99470972 107.09765625 176.71484375 C107.10277222 177.61658325 107.10788818 178.51832275 107.11315918 179.4473877 C107.11346882 181.63191745 107.0624587 183.8163633 107 186 C105.45989313 187.54010687 104.0460141 187.12593583 101.90026855 187.12698364 C100.57514503 187.13121338 100.57514503 187.13121338 99.22325134 187.13552856 C98.24659012 187.13350433 97.26992889 187.1314801 96.26367188 187.12939453 C94.72967491 187.13202301 94.72967491 187.13202301 93.16468811 187.13470459 C89.76602508 187.13912527 86.36741361 187.13618435 82.96875 187.1328125 C80.61844879 187.13348548 78.26814765 187.13445545 75.91784668 187.13571167 C70.98477518 187.13718894 66.05172175 187.13503316 61.11865234 187.13037109 C54.77949333 187.1246738 48.44037664 187.12795265 42.10121918 187.13394356 C37.24582599 187.13754839 32.39044292 187.13641094 27.53504944 187.13381577 C25.19694514 187.13314628 22.85883994 187.13397566 20.52073669 187.13629532 C17.25924223 187.13882057 13.99781737 187.13498304 10.73632812 187.12939453 C9.7596669 187.13141876 8.78300568 187.13344299 7.77674866 187.13552856 C6.45162514 187.13129883 6.45162514 187.13129883 5.09973145 187.12698364 C4.32764595 187.12660662 3.55556046 187.12622959 2.76007843 187.12584114 C1 187 1 187 0 186 C-0.09766542 183.59671471 -0.12996828 181.22220648 -0.12025452 178.81846619 C-0.12110894 178.05807102 -0.12196337 177.29767586 -0.12284368 176.51423842 C-0.12450078 173.9468875 -0.11897339 171.37960083 -0.11352539 168.81225586 C-0.11324354 166.97961936 -0.11340121 165.14698275 -0.1139679 163.31434631 C-0.11425596 158.32281938 -0.10835777 153.33131625 -0.10139394 148.33979487 C-0.09516191 143.12940894 -0.09455672 137.91902251 -0.09336853 132.70863342 C-0.09025477 122.83468975 -0.08204078 112.96075709 -0.07201904 103.08681828 C-0.05877445 89.74933955 -0.05335836 76.41185784 -0.04751682 63.0743742 C-0.03810092 42.04957454 -0.0181823 21.02479813 0 0 Z " fill="#FFFFFF" transform="translate(1754,249)"/>
<path d="M0 0 C1 1 1 1 1.12025452 3.32215881 C1.11803391 4.35030197 1.11581329 5.37844513 1.11352539 6.43774414 C1.11344986 7.59887222 1.11337433 8.76000031 1.11329651 9.95631409 C1.10813522 11.219832 1.10297394 12.48334991 1.09765625 13.78515625 C1.09553383 15.71408974 1.09553383 15.71408974 1.09336853 17.68199158 C1.08954418 21.10643443 1.07971462 24.53083509 1.06866455 27.95526123 C1.05844864 31.44738189 1.05387053 34.93950934 1.04882812 38.43164062 C1.03809227 45.28777778 1.02101684 52.14388687 1 59 C-2.796875 58.265625 -2.796875 58.265625 -4.625 55.875 C-11.87256723 47.10162914 -22.83918152 42.55151067 -33.75 40.1875 C-34.8225 40.125625 -35.895 40.06375 -37 40 C-37.64710938 39.94972656 -38.29421875 39.89945312 -38.9609375 39.84765625 C-52.1380268 39.25302226 -64.20668031 44.06324188 -74.3125 52.3125 C-83.00708908 60.43811801 -88.50545795 71.96571851 -89.23828125 83.87109375 C-89.62592965 99.75420128 -86.37338167 113.28434273 -75.3125 125.25 C-66.15415011 133.90149465 -54.20256219 138.60088537 -41.6875 138.4375 C-40.44419922 138.42505249 -40.44419922 138.42505249 -39.17578125 138.41235352 C-24.51266683 138.01123055 -13.05102602 131.21043002 -2.55859375 121.28515625 C-1 120 -1 120 1 120 C1 139.14 1 158.28 1 178 C-10.32827324 182.5313093 -10.32827324 182.5313093 -16.25 184.1875 C-17.95929688 184.67283203 -17.95929688 184.67283203 -19.703125 185.16796875 C-45.14665507 191.58914399 -72.6107949 187.17277821 -95 174 C-117.72571234 160.07933855 -134.07032117 137.47014339 -140.4375 111.625 C-146.38147182 84.44954625 -140.80109792 57.32405469 -126.28417969 33.94140625 C-111.53944718 11.65051026 -87.85037626 -2.53617047 -62 -8 C-40.64407809 -11.80902293 -19.86968374 -7.96695602 0 0 Z " fill="#FFFFFF" transform="translate(906,253)"/>
<path d="M0 0 C0.92167969 0.44085938 1.84335938 0.88171875 2.79296875 1.3359375 C24.07255366 12.20083135 42.04280753 32.76327921 49.58203125 55.53125 C57.61158463 81.61477839 56.00209163 108.71274501 43.44140625 133.015625 C39.37529216 140.3402647 34.540622 146.7306115 29 153 C28.45988281 153.62390625 27.91976563 154.2478125 27.36328125 154.890625 C10.84802226 172.6954886 -14.51351954 183.20980495 -38.4453125 184.22265625 C-67.3011138 184.98850305 -92.39275459 175.37822866 -113.42041016 155.55712891 C-130.98042655 138.24680672 -140.23994625 115.55498271 -140.46801758 90.91357422 C-140.45794678 89.66334473 -140.44787598 88.41311523 -140.4375 87.125 C-140.42722778 85.15490967 -140.42722778 85.15490967 -140.41674805 83.14501953 C-140.25717457 73.49530645 -139.33040415 65.07698386 -136 56 C-135.62617187 54.94554687 -135.25234375 53.89109375 -134.8671875 52.8046875 C-129.84572481 39.80209207 -122.61414386 29.84663383 -113 20 C-112.26910156 19.195625 -111.53820312 18.39125 -110.78515625 17.5625 C-83.32991683 -11.88669536 -35.21475375 -17.03457678 0 0 Z M-95 42 C-100.31662052 48.34380301 -104.0604935 55.27975766 -107 63 C-107.32097656 63.83144531 -107.64195312 64.66289063 -107.97265625 65.51953125 C-113.37380063 82.67758526 -111.09136128 103.16150519 -103.75 119.3125 C-100.81861462 124.72567177 -97.04098033 129.37949924 -93 134 C-92.47921875 134.61617188 -91.9584375 135.23234375 -91.421875 135.8671875 C-80.40264173 147.94382194 -63.80826492 155.2291322 -47.625 156.203125 C-26.20446408 156.48011469 -9.48876521 149.78991396 6.25 135.25 C20.29898563 120.52783381 24.68686645 102.03610794 24.3125 82.375 C23.53195741 64.03224919 15.63413651 48.2566903 2.46875 35.55859375 C-26.5768148 10.31458082 -69.60275169 13.80055438 -95 42 Z " fill="#FFFFFF" transform="translate(1084,12)"/>
<path d="M0 0 C5.87781099 -0.01873498 11.75560407 -0.03224303 17.63343811 -0.04119873 C19.62719527 -0.0449378 21.62095041 -0.05003086 23.61470032 -0.05657959 C74.39630598 -0.21903231 74.39630598 -0.21903231 90.1875 13.96484375 C95.56382416 19.59572872 98.96582107 25.87298781 102 33 C102.34160156 33.76570313 102.68320312 34.53140625 103.03515625 35.3203125 C106.98146867 45.85604891 106.76769449 60.36164571 102.27734375 70.63671875 C99.31583326 76.115966 95.74134622 81.03744285 92 86 C92.64066406 86.29132813 93.28132812 86.58265625 93.94140625 86.8828125 C107.6955539 93.40117159 114.75570238 102.67427264 120.0546875 116.921875 C124.1688993 130.31856466 122.68290562 145.22938641 116.375 157.6875 C108.40817917 171.1217469 97.14174114 180.05879813 82.10546875 184.30859375 C65.41702331 188.02413443 47.6875188 187.15984553 30.70117188 187.13037109 C26.9517833 187.12493003 23.20251031 187.13038862 19.453125 187.13671875 C17.0729164 187.13605931 14.69270788 187.13478095 12.3125 187.1328125 C11.18980713 187.13483673 10.06711426 187.13686096 8.91040039 187.13894653 C7.37113892 187.13421829 7.37113892 187.13421829 5.80078125 187.12939453 C4.89497314 187.12859894 3.98916504 187.12780334 3.0559082 187.12698364 C1 187 1 187 0 186 C-0.09766542 183.59671471 -0.12996828 181.22220648 -0.12025452 178.81846619 C-0.12110894 178.05807102 -0.12196337 177.29767586 -0.12284368 176.51423842 C-0.12450078 173.9468875 -0.11897339 171.37960083 -0.11352539 168.81225586 C-0.11324354 166.97961936 -0.11340121 165.14698275 -0.1139679 163.31434631 C-0.11425596 158.32281938 -0.10835777 153.33131625 -0.10139394 148.33979487 C-0.09516191 143.12940894 -0.09455672 137.91902251 -0.09336853 132.70863342 C-0.09025477 122.83468975 -0.08204078 112.96075709 -0.07201904 103.08681828 C-0.06085929 91.84879999 -0.0553478 80.61078119 -0.05032361 69.37275875 C-0.0398582 46.24849971 -0.02225789 23.12425047 0 0 Z M30 28 C30 44.83 30 61.66 30 79 C34.228125 79.0825 38.45625 79.165 42.8125 79.25 C44.7766687 79.30462402 44.7766687 79.30462402 46.78051758 79.36035156 C54.9885292 79.43706773 63.41116036 78.83893248 69.9675293 73.35400391 C75.43521344 67.63109729 77.15485546 61.39316608 77.4375 53.625 C77.24370886 46.65659356 76.01603558 40.60397163 71.45703125 35.15625 C63.21571131 27.46183687 54.21784088 27.60174895 43.5 27.8125 C39.045 27.874375 34.59 27.93625 30 28 Z M30 105 C30 122.49 30 139.98 30 158 C36.06375 158.061875 42.1275 158.12375 48.375 158.1875 C50.26782715 158.21481201 52.1606543 158.24212402 54.11083984 158.27026367 C65.04730993 158.36231051 75.12063378 158.26493599 84 151 C89.80418996 145.27952432 92.26381962 140.04579221 92.4375 131.75 C92.28993596 123.66164599 89.7482816 117.3732816 84 111.625 C73.2517668 103.79380194 60.30169479 104.49667366 47.6875 104.75 C38.9321875 104.87375 38.9321875 104.87375 30 105 Z " fill="#FFFFFF" transform="translate(787,6)"/>
<path d="M0 0 C7.21839298 -0.05137439 14.43673759 -0.08601139 21.65527344 -0.10986328 C24.1028825 -0.11982336 26.55047998 -0.13339629 28.99804688 -0.15087891 C62.15136425 -0.38148709 94.40536538 2.23929646 119.3125 26.6875 C137.65202808 45.37128976 145.27464905 69.62649732 145.17919922 95.43164062 C144.76228532 122.37249921 134.28602845 144.55736605 115.10546875 163.26171875 C97.82627442 178.96550642 75.9232099 185.45614708 52.91796875 186.5546875 C52.05205612 186.59673309 51.18614349 186.63877869 50.29399109 186.68209839 C41.20640209 187.08807858 32.12444575 187.15185172 23.02905273 187.13037109 C20.24783197 187.12487214 17.46676364 187.13043242 14.68554688 187.13671875 C12.91145798 187.1360601 11.13736917 187.1347834 9.36328125 187.1328125 C8.11989738 187.13584885 8.11989738 187.13584885 6.85139465 187.13894653 C1.11503565 187.11503565 1.11503565 187.11503565 0 186 C-0.09766542 183.59671471 -0.12996828 181.22220648 -0.12025452 178.81846619 C-0.12110894 178.05807102 -0.12196337 177.29767586 -0.12284368 176.51423842 C-0.12450078 173.9468875 -0.11897339 171.37960083 -0.11352539 168.81225586 C-0.11324354 166.97961936 -0.11340121 165.14698275 -0.1139679 163.31434631 C-0.11425596 158.32281938 -0.10835777 153.33131625 -0.10139394 148.33979487 C-0.09516191 143.12940894 -0.09455672 137.91902251 -0.09336853 132.70863342 C-0.09025477 122.83468975 -0.08204078 112.96075709 -0.07201904 103.08681828 C-0.06085929 91.84879999 -0.0553478 80.61078119 -0.05032361 69.37275875 C-0.0398582 46.24849971 -0.02225789 23.12425047 0 0 Z M30 28 C30 70.9 30 113.8 30 158 C64.90521973 158.53529546 64.90521973 158.53529546 94.20703125 141.89453125 C94.79871094 141.26933594 95.39039063 140.64414063 96 140 C96.74636719 139.26136719 97.49273438 138.52273437 98.26171875 137.76171875 C110.75323248 124.81596816 115.44633085 108.36193058 115.203125 90.6484375 C114.2071669 72.75949781 108.11814859 57.49575468 95 45 C94.43796875 44.43023437 93.8759375 43.86046875 93.296875 43.2734375 C76.66600126 27.53062013 51.10875178 28 30 28 Z " fill="#FFFFFF" transform="translate(1544,6)"/>
<path d="M0 0 C6.82776627 -0.05131996 13.6554816 -0.08598945 20.48339844 -0.10986328 C22.79917255 -0.11983121 25.11493438 -0.13341041 27.43066406 -0.15087891 C51.82266948 -0.33007687 77.61596647 -0.44107188 96.6875 17.0625 C106.67845346 27.65467898 110.8968425 40.77804007 111.3125 55.1875 C110.68698288 71.58692699 105.35092284 85.26236586 93.375 96.75 C87.37835831 101.68349207 78.78165137 107 71 107 C82.13791325 122.85396661 93.4449801 138.57437617 104.96459961 154.15332031 C108.91619308 159.50497983 112.80854648 164.89442534 116.640625 170.33227539 C119.55749288 174.45074994 122.65667432 178.38022725 125.91796875 182.23046875 C126.27503906 182.81441406 126.63210938 183.39835938 127 184 C126.67 184.99 126.34 185.98 126 187 C121.26792995 187.1737205 116.53773432 187.30037162 111.80322266 187.38452148 C110.1948207 187.4196133 108.58664032 187.46730247 106.97900391 187.52807617 C93.70621413 188.01707369 93.70621413 188.01707369 89.74658203 185.65673828 C88.17065004 183.8551695 87.10146211 182.1202752 86 180 C85.20196447 178.86655589 84.39204933 177.74138024 83.5703125 176.625 C82.75136563 175.41926775 81.93646283 174.2107817 81.125 173 C80.16351182 171.58412487 79.20122316 170.1687931 78.23828125 168.75390625 C77.72088379 167.99223145 77.20348633 167.23055664 76.67041016 166.44580078 C73.58100101 161.92231337 70.44428299 157.43170349 67.3125 152.9375 C66.6426709 151.97529541 65.9728418 151.01309082 65.28271484 150.02172852 C62.45094506 145.95395398 59.61798951 141.88700632 56.78466797 137.8203125 C55.31348787 135.7085769 53.84253647 133.59668195 52.37182617 131.48461914 C50.99101573 129.50166032 49.60969487 127.51905678 48.2277832 125.53686523 C47.600896 124.63653564 46.97400879 123.73620605 46.328125 122.80859375 C45.73708984 121.97312012 45.14605469 121.13764648 44.53710938 120.27685547 C43 118 43 118 41.97851562 116.05517578 C41.06422363 114.17151285 41.06422363 114.17151285 39 112 C36.79220372 111.49142912 36.79220372 111.49142912 34.36816406 111.34936523 C33.55188538 111.27830063 32.73560669 111.20723602 31.89459229 111.13401794 C31.26937683 111.08979202 30.64416138 111.0455661 30 111 C30.00222061 111.9373851 30.00444122 112.8747702 30.00672913 113.84056091 C30.02696143 122.65521785 30.04197256 131.4698701 30.05181217 140.28454494 C30.05704078 144.81674094 30.06413801 149.34891827 30.07543945 153.88110352 C30.08626914 158.2512283 30.09227701 162.62133508 30.09487724 166.99147224 C30.09673135 168.66250963 30.10035168 170.33354597 30.10573006 172.00457573 C30.11294159 174.33697551 30.1139909 176.66929993 30.11352539 179.00170898 C30.11712067 179.6994191 30.12071594 180.39712921 30.12442017 181.11598206 C30.11405216 185.88594784 30.11405216 185.88594784 29 187 C26.9394469 187.09993532 24.8754741 187.13080906 22.8125 187.1328125 C21.55695313 187.13410156 20.30140625 187.13539063 19.0078125 187.13671875 C18.35071289 187.13462402 17.69361328 187.1325293 17.01660156 187.13037109 C15.00838665 187.12502234 13.00039541 187.13031691 10.9921875 187.13671875 C9.73664063 187.13542969 8.48109375 187.13414062 7.1875 187.1328125 C6.02605469 187.13168457 4.86460938 187.13055664 3.66796875 187.12939453 C1 187 1 187 0 186 C-0.09766542 183.59671471 -0.12996828 181.22220648 -0.12025452 178.81846619 C-0.12110894 178.05807102 -0.12196337 177.29767586 -0.12284368 176.51423842 C-0.12450078 173.9468875 -0.11897339 171.37960083 -0.11352539 168.81225586 C-0.11324354 166.97961936 -0.11340121 165.14698275 -0.1139679 163.31434631 C-0.11425596 158.32281938 -0.10835777 153.33131625 -0.10139394 148.33979487 C-0.09516191 143.12940894 -0.09455672 137.91902251 -0.09336853 132.70863342 C-0.09025477 122.83468975 -0.08204078 112.96075709 -0.07201904 103.08681828 C-0.06085929 91.84879999 -0.0553478 80.61078119 -0.05032361 69.37275875 C-0.0398582 46.24849971 -0.02225789 23.12425047 0 0 Z M30 28 C30 46.81 30 65.62 30 85 C53.81342601 86.07527334 53.81342601 86.07527334 74 76 C79.81218478 69.94981628 81.6507567 64.33061693 82.3125 56.125 C82.06396109 48.68345254 79.905861 41.90514462 74.734375 36.46484375 C62.52714052 26.15467949 44.66277317 28 30 28 Z " fill="#FFFFFF" transform="translate(1893,6)"/>
<path d="M0 0 C9.9 0 19.8 0 30 0 C30.0093457 3.70283203 30.01869141 7.40566406 30.02832031 11.22070312 C30.0622001 23.50221671 30.1176122 35.78355575 30.18390274 48.06493378 C30.22354662 55.50569473 30.25601288 62.94635217 30.27099609 70.38720703 C30.28408926 76.88007903 30.31124638 83.37272185 30.35461307 89.86546469 C30.37705769 93.29665301 30.39292108 96.72756051 30.39188385 100.15882874 C29.62061606 126.80073996 29.62061606 126.80073996 41 150 C49.79338346 158.39540705 60.85307982 161.35686405 72.74609375 161.2109375 C83.06668428 160.54189562 92.51886683 157.30228622 100.03515625 150.03125 C109.60315574 138.81779836 110.13324432 124.84425193 110.20532227 110.80078125 C110.21522186 109.59992386 110.22512146 108.39906647 110.23532104 107.16181946 C110.26136984 103.89174862 110.28328847 100.62168232 110.30332303 97.35157013 C110.32530499 93.92559788 110.3526335 90.49966824 110.37937927 87.07373047 C110.42914209 80.59643987 110.47414125 74.11912542 110.51740164 67.64178848 C110.56691497 60.2632388 110.62178048 52.8847319 110.67708123 45.50622368 C110.79064908 30.33752238 110.89754222 15.16878071 111 0 C115.1117256 -0.02465746 119.22342278 -0.04283959 123.33520508 -0.05493164 C124.73495228 -0.0599708 126.1346942 -0.06680216 127.53442383 -0.07543945 C129.54245777 -0.0875232 131.55052957 -0.09269807 133.55859375 -0.09765625 C135.37315063 -0.10551147 135.37315063 -0.10551147 137.22436523 -0.11352539 C140 0 140 0 141 1 C141.10025454 2.56037578 141.13075742 4.12528293 141.13371277 5.68887329 C141.14011024 7.21083061 141.14011024 7.21083061 141.14663696 8.76353455 C141.14618378 9.88651443 141.14573059 11.00949432 141.14526367 12.16650391 C141.14862228 13.34224472 141.1519809 14.51798553 141.15544128 15.72935486 C141.16334244 18.9678128 141.1666209 22.20623236 141.16725707 25.44469881 C141.16796745 27.47286408 141.17010183 29.50102264 141.17275429 31.52918625 C141.18202554 38.62037328 141.18608805 45.71154148 141.18530273 52.80273438 C141.18470546 59.38320272 141.19518323 65.96358814 141.2110464 72.54403555 C141.22420865 78.20879071 141.22948283 83.87351913 141.22884732 89.53828943 C141.22859433 92.91406113 141.23133239 96.2897596 141.24202538 99.6655159 C141.31080232 125.96686192 141.00893505 149.5857304 121.75 169.75 C107.14415011 183.73814 88.53595103 190.5536585 68.40112305 190.35351562 C49.84970111 189.76504863 30.99600783 182.66470622 18 169 C0.2467629 148.27223464 -0.46587958 127.45353214 -0.30418181 101.43023801 C-0.28521587 97.85487178 -0.2836491 94.27949508 -0.28010559 90.7040863 C-0.27084284 83.95777283 -0.24630874 77.21160809 -0.21605712 70.46535963 C-0.18233154 62.77473181 -0.16598183 55.08409626 -0.15097082 47.39341271 C-0.11975277 31.59550809 -0.06481459 15.79780794 0 0 Z " fill="#FFFFFF" transform="translate(1185,6)"/>
<path d="M0 0 C33.99 0 67.98 0 103 0 C103 9.24 103 18.48 103 28 C78.91 28 54.82 28 30 28 C30 43.84 30 59.68 30 76 C53.43 76 76.86 76 101 76 C101 85.24 101 94.48 101 104 C77.57 104 54.14 104 30 104 C30 121.82 30 139.64 30 158 C54.09 158 78.18 158 103 158 C103 167.57 103 177.14 103 187 C69.01 187 35.02 187 0 187 C0 125.29 0 63.58 0 0 Z " fill="#FFFFFF" transform="translate(1735,6)"/>
<path d="M0 0 C-0.5997556 4.99229766 -2.18558499 9.26939634 -4.17578125 13.84375 C-4.65707993 14.97294609 -4.65707993 14.97294609 -5.14810181 16.12495422 C-5.83788532 17.74222321 -6.53045905 19.35830446 -7.22555542 20.97329712 C-9.07906941 25.28196125 -10.91020551 29.60011535 -12.7421875 33.91796875 C-13.2945533 35.21827278 -13.2945533 35.21827278 -13.858078 36.54484558 C-16.98700838 43.9280146 -19.98946651 51.35506713 -22.9375 58.8125 C-28.50465932 72.87838855 -34.29761998 86.84677835 -40.12670898 100.8059082 C-40.82308136 102.47593772 -41.51913445 104.1461004 -42.21484375 105.81640625 C-42.54665146 106.61287064 -42.87845917 107.40933502 -43.22032166 108.22993469 C-45.62399037 114.02705808 -47.90165371 119.86047692 -50.09204102 125.74194336 C-51 128 -51 128 -52 129 C-53.98694851 129.096708 -55.97739013 129.12187052 -57.96669006 129.12025452 C-59.91242165 129.12231651 -59.91242165 129.12231651 -61.89746094 129.12442017 C-63.3483889 129.12088055 -64.79931663 129.11724573 -66.25024414 129.11352539 C-67.76761371 129.11324353 -69.28498342 129.11340123 -70.80235291 129.1139679 C-74.93440516 129.11425591 -79.06642863 129.10835858 -83.19847417 129.10139394 C-87.51198892 129.09516102 -91.82550427 129.09455665 -96.13902283 129.09336853 C-104.31300117 129.09025503 -112.48696621 129.08204139 -120.66093868 129.07201904 C-129.96428969 129.06085848 -139.26764132 129.0553476 -148.57099736 129.05032361 C-167.71400579 129.03985879 -186.85700183 129.02225899 -206 129 C-206 128.01 -206 127.02 -206 126 C-204.19018555 124.56469727 -204.19018555 124.56469727 -201.63671875 123.06640625 C-200.69699219 122.50630859 -199.75726563 121.94621094 -198.7890625 121.36914062 C-197.76554688 120.77294922 -196.74203125 120.17675781 -195.6875 119.5625 C-193.55515498 118.29437107 -191.42365544 117.02481949 -189.29296875 115.75390625 C-188.22481934 115.11984863 -187.15666992 114.48579102 -186.05615234 113.83251953 C-181.82342049 111.29450345 -177.65838784 108.65746059 -173.5 106 C-165.5810575 100.96051961 -157.57482904 96.07443346 -149.546875 91.2109375 C-143.49097963 87.53530047 -137.47733853 83.8019126 -131.5 80 C-123.57985658 74.96235776 -115.57487775 70.07446297 -107.546875 65.2109375 C-101.49097963 61.53530047 -95.47733853 57.8019126 -89.5 54 C-81.57625315 48.96006578 -73.56762133 44.06995757 -65.53588867 39.2043457 C-59.5872329 35.59391854 -53.6813974 31.92598188 -47.8125 28.1875 C-38.52506182 22.27435896 -29.1144103 16.56926299 -19.69262695 10.8737793 C-19.11538376 10.52469009 -18.53814056 10.17560089 -17.94340515 9.81593323 C-16.28642021 8.81425708 -14.62881497 7.81360726 -12.97119141 6.81298828 C-10.3902673 5.23813681 -7.83846878 3.62720754 -5.29296875 1.99609375 C-2 0 -2 0 0 0 Z " fill="#FF3D33" transform="translate(206,307)"/>
<path d="M0 0 C4.1117256 -0.02465746 8.22342278 -0.04283959 12.33520508 -0.05493164 C13.73495228 -0.0599708 15.1346942 -0.06680216 16.53442383 -0.07543945 C18.54245777 -0.0875232 20.55052957 -0.09269807 22.55859375 -0.09765625 C24.37315063 -0.10551147 24.37315063 -0.10551147 26.22436523 -0.11352539 C29 0 29 0 30 1 C30.09676414 3.02494622 30.12186986 5.05332542 30.12025452 7.08058167 C30.12110894 7.72255381 30.12196337 8.36452596 30.12284368 9.0259518 C30.12450021 11.19254054 30.11897433 13.35905307 30.11352539 15.52563477 C30.11324353 17.07256061 30.11340123 18.61948659 30.1139679 20.16641235 C30.11425592 24.37904032 30.10835849 28.59164006 30.10139394 32.80426145 C30.09516112 37.20185788 30.09455666 41.59945489 30.09336853 45.99705505 C30.090255 54.33040513 30.08204132 62.66374215 30.07201904 70.99708647 C30.06085857 80.48181254 30.05534762 89.96653922 30.05032361 99.45127022 C30.03985873 118.96752089 30.02225887 138.4837594 30 158 C30.9373851 157.99777939 31.8747702 157.99555878 32.84056091 157.99327087 C41.65521785 157.97303857 50.4698701 157.95802744 59.28454494 157.94818783 C63.81674094 157.94295922 68.34891827 157.93586199 72.88110352 157.92456055 C77.2512283 157.91373086 81.62133508 157.90772299 85.99147224 157.90512276 C87.66250963 157.90326865 89.33354597 157.89964832 91.00457573 157.89426994 C93.33697551 157.88705841 95.66929993 157.8860091 98.00170898 157.88647461 C98.6994191 157.88287933 99.39712921 157.87928406 100.11598206 157.87557983 C104.88594784 157.88594784 104.88594784 157.88594784 106 159 C106.09983058 160.98757028 106.13080753 162.9786752 106.1328125 164.96875 C106.13410156 166.17917969 106.13539062 167.38960937 106.13671875 168.63671875 C106.13285156 169.91160156 106.12898438 171.18648437 106.125 172.5 C106.12886719 173.77488281 106.13273437 175.04976562 106.13671875 176.36328125 C106.13542969 177.57371094 106.13414063 178.78414062 106.1328125 180.03125 C106.13168457 181.15080078 106.13055664 182.27035156 106.12939453 183.42382812 C106 186 106 186 105 187 C103.6489268 187.09746311 102.29281627 187.12631579 100.93823242 187.12698364 C100.0632309 187.12980347 99.18822937 187.13262329 98.28671265 187.13552856 C96.83574692 187.13249222 96.83574692 187.13249222 95.35546875 187.12939453 C94.34255768 187.13114685 93.32964661 187.13289917 92.28604126 187.13470459 C88.91984369 187.13912522 85.55369816 187.13618437 82.1875 187.1328125 C79.85961904 187.13348548 77.53173814 187.13445545 75.20385742 187.13571167 C70.31786431 187.13718893 65.43188944 187.13503318 60.54589844 187.13037109 C54.26727344 187.1246738 47.98869118 187.12795265 41.71006775 187.13394356 C36.90099767 187.13754841 32.09193781 187.13641093 27.28286743 187.13381577 C24.96709183 187.13314629 22.65131531 187.13397564 20.33554077 187.13629532 C17.10517909 187.13882061 13.87488767 187.13498299 10.64453125 187.12939453 C9.67722076 187.13141876 8.70991028 187.13344299 7.71328735 187.13552856 C6.83828583 187.13270874 5.9632843 187.12988892 5.06176758 187.12698364 C4.29705643 187.12660662 3.53234528 187.12622959 2.74446106 187.12584114 C1 187 1 187 0 186 C-0.09766542 183.59671471 -0.12996828 181.22220648 -0.12025452 178.81846619 C-0.12110894 178.05807102 -0.12196337 177.29767586 -0.12284368 176.51423842 C-0.12450078 173.9468875 -0.11897339 171.37960083 -0.11352539 168.81225586 C-0.11324354 166.97961936 -0.11340121 165.14698275 -0.1139679 163.31434631 C-0.11425596 158.32281938 -0.10835777 153.33131625 -0.10139394 148.33979487 C-0.09516191 143.12940894 -0.09455672 137.91902251 -0.09336853 132.70863342 C-0.09025477 122.83468975 -0.08204078 112.96075709 -0.07201904 103.08681828 C-0.06085929 91.84879999 -0.0553478 80.61078119 -0.05032361 69.37275875 C-0.0398582 46.24849971 -0.02225789 23.12425047 0 0 Z " fill="#FFFFFF" transform="translate(1392,6)"/>
</svg>
