<svg version="1.1" id="Layer_1" xmlns:x="ns_extend;" xmlns:i="ns_ai;" xmlns:graph="ns_graphs;" xmlns="http://www.w3.org/2000/svg" xmlns:xlink="http://www.w3.org/1999/xlink" x="0px" y="0px" viewBox="0 0 535.7 285.5" style="enable-background:new 0 0 535.7 285.5;" xml:space="preserve">
 <style type="text/css">
  .st0{fill:none;}
	.st1{fill:#0033FF;}
	.st2{fill-rule:evenodd;clip-rule:evenodd;fill:#03CC54;}
 </style>
 <metadata>
  <sfw xmlns="ns_sfw;">
   <slices>
   </slices>
   <sliceSourceBounds bottomLeftOrigin="true" height="285.5" width="535.7" x="8.5" y="6.6">
   </sliceSourceBounds>
  </sfw>
 </metadata>
 <g>
  <path class="st0" d="M507.5,264.9c-3.4,0-5.7,2.6-6.2,6.3h12.3C513.2,267.7,511.1,264.9,507.5,264.9z">
  </path>
  <path class="st0" d="M343.4,277.7L343.4,277.7c0,2.4,2,3.6,4.6,3.6c3.6,0,6.4-2,6.4-5.1v-1.4c-1.4-0.5-3.4-1-5.5-1
		C345.5,273.9,343.4,275.4,343.4,277.7z">
  </path>
  <path class="st0" d="M459.5,143.8c-18.6,0-26.3,18.4-26.3,40.7s7.7,40.7,26.3,40.7s26.3-18.4,26.3-40.7
		C485.8,162.2,478.1,143.8,459.5,143.8z">
  </path>
  <path class="st0" d="M215.2,272c17.3,0,26.8-10.2,26.8-20.2c0-7.9-4.8-15.7-18.7-15.7H200c-6,3.1-10.2,10.5-10.2,17.8
		C189.8,264.7,198.9,272,215.2,272z">
  </path>
  <path class="st0" d="M322.5,264.9c-3.4,0-5.7,2.6-6.2,6.3h12.4C328.2,267.7,326.1,264.9,322.5,264.9z">
  </path>
  <path class="st0" d="M214.1,142.8c-11.6,0-19.1,9.8-19.1,26s7.5,26,19.1,26c11.5,0,18.9-9.8,18.9-26
		C233.1,152.5,225.6,142.8,214.1,142.8z">
  </path>
  <path class="st0" d="M456.2,277.7L456.2,277.7c0,2.4,2,3.6,4.7,3.6c3.6,0,6.4-2,6.4-5.1v-1.4c-1.4-0.5-3.4-1-5.5-1
		C458.2,273.9,456.2,275.4,456.2,277.7z">
  </path>
  <path class="st1" d="M296.9,260.4c-3.7,0-6,2-7.5,4.2v-12.9h-5.5V285h5.5v-13.6c0-3.7,2.2-6,5.4-6c3.3,0,5.1,2.1,5.1,5.9V285h5.5
		v-15.3C305.4,264,302.3,260.4,296.9,260.4z">
  </path>
  <path class="st1" d="M322.5,260.4c-6.9,0-11.8,5.6-11.8,12.5v0.1c0,7.4,5.4,12.5,12.4,12.5c4.4,0,7.6-1.8,9.9-4.5l-3.2-2.9
		c-1.9,1.9-3.8,2.9-6.5,2.9c-3.5,0-6.3-2.2-6.9-6.1H334c0-0.5,0.1-1,0.1-1.5C334,266.4,330.2,260.4,322.5,260.4z M316.2,271.3
		c0.5-3.7,2.9-6.3,6.2-6.3c3.6,0,5.7,2.8,6.1,6.3H316.2z">
  </path>
  <path class="st1" d="M332.3,229.7c0-4.6-1.7-4.9-1.7-4.9h-2.5c-4.2,0-8.4-4.2-8.4-8.4v-42.4c0-17.1,10.2-27.4,23.4-27.4
		c11.3,0,19.6,6.3,19.6,20v49.8c0,4.2-4.2,8.4-8.4,8.4H352c0,0-1.7,0.4-1.7,4.7s1.7,6.5,1.7,6.5h49.3c0,0,1.7-1.9,1.7-6.1
		c0-4.3-1.7-5.1-1.7-5.1h-2.5c-4.2,0-8.4-4.2-8.4-8.4v-50.8c0-24-15-35.7-36.8-35.7c-16.1,0-28.4,7.5-35.9,18.6c0,0,0-11,0-12.3
		c0-3.6-3.4-4.8-7.6-3.2c-2.8,1.1-16.8,6.1-28.7,6.1c-0.7,0.9-1.7,2.7-1.7,5.6c0,2.6,0.6,3.9,1.7,5.6h2.5c4.2,0,8.4,4.2,8.4,8.4
		v57.7c0,4.2-4.2,8.4-8.4,8.4h-2.5c0,0-1.7,0.3-1.7,4.8c0,4.5,1.7,6.5,1.7,6.5h49.3C330.7,236.1,332.3,234.4,332.3,229.7z">
  </path>
  <path class="st1" d="M241.2,137.6c-7.5-4.9-16.8-7.8-27.1-7.8c-25.8,0-44.7,17.3-44.7,38.9c0,13.3,7.3,24.1,17.3,30.8l-17.5,21.8
		c0,0-2.2,4-2.2,8.1c0,4,2.5,6.7,2.5,6.7h12.4c-9.1,5.4-13.3,14.4-13.3,22.1c0,15,13.1,27.3,42.5,27.3c29.5,0,57-15.6,57-40.2
		c0-17.5-10.4-29.3-36.4-29.3h-39.3l7.7-10.4c4.4,1.5,7.9,2.1,14.1,2.1c25.6,0,44.7-17.5,44.7-38.9c0-6.7-1.9-12.9-5.1-18.3h15.2
		c0.8-1.4,1.7-3.3,1.7-6.5c0-2.5-0.9-5.2-1.6-6.3L241.2,137.6L241.2,137.6z M200,236.1h23.3c13.9,0,18.7,7.8,18.7,15.7
		c0,10-9.6,20.2-26.8,20.2c-16.2,0-25.4-7.3-25.4-18.1C189.8,246.6,193.9,239.3,200,236.1z M214.1,194.8c-11.6,0-19.1-9.8-19.1-26
		s7.5-26,19.1-26c11.5,0,18.9,9.8,18.9,26C233.1,185,225.6,194.8,214.1,194.8z">
  </path>
  <path class="st1" d="M92.3,201.2c-3.4-1.2-6.1-0.1-6.1-0.1c-7.7,13.4-14.7,19.6-25.6,19.6c-19.6,0-32.2-17.8-32.2-38.9
		c0-19.6,8.8-38.9,29-38.9c12.7,0,22.5,7.9,22.5,20l0.3,3.8c0,0-0.4,1.7,4.9,1.7s6.7-1.7,6.7-1.7l-1.1-27.4c0,0-0.1-0.7-0.5-1.2
		c-0.4-0.5-1-0.9-1-0.9c-8.1-4.6-19-7.3-31.8-7.3C27.8,130,0,150,0,186.2C0,218.6,24.4,239,52.4,239c26.3,0,38.5-16.5,44-34.9
		C96.4,204.1,94.9,202.1,92.3,201.2z">
  </path>
  <path class="st1" d="M129.7,122.5c9.5,0,17.3-7.9,17.3-17.7c0-9.8-7.7-17.7-17.3-17.7c-9.5,0-17.3,7.9-17.3,17.7
		C112.5,114.6,120.2,122.5,129.7,122.5z">
  </path>
  <path class="st1" d="M143.5,155c0-4.2,4.2-8.4,8.4-8.4h2.5c0,0,1.7-1,1.7-5.1c0-4.1-1.7-6.1-1.7-6.1h-49.3c0,0-1.7,2.5-1.7,6.5
		s1.7,4.8,1.7,4.8h2.5c4.2,0,8.4,4.2,8.4,8.4v41.8v19.7c0,4.2-4.2,8.4-8.4,8.4h-2.5c0,0-1.7,0.8-1.7,4.8s1.7,6.5,1.7,6.5h49.3
		c0,0,1.7-2.1,1.7-6.1c0-4-1.7-5.1-1.7-5.1h-2.5c-4.2,0-8.4-4.2-8.4-8.4v-14.4V155z">
  </path>
  <path class="st1" d="M462,260.5c-3.9,0-6.5,0.8-9.2,2l1.5,4.4c2.2-0.9,4.2-1.5,6.9-1.5c3.8,0,5.9,1.8,5.9,5.1v0.5
		c-1.9-0.6-3.7-1-6.7-1c-5.6,0-9.8,2.5-9.8,7.9v0.1c0,4.8,4,7.4,8.6,7.4c3.6,0,6.2-1.5,7.8-3.5v3h5.5v-14.3
		C472.6,264.3,469.1,260.5,462,260.5z M467.2,276.3c0,3-2.7,5.1-6.4,5.1c-2.6,0-4.7-1.3-4.7-3.5v-0.1c0-2.3,2-3.7,5.5-3.7
		c2.1,0,4.1,0.4,5.5,1L467.2,276.3L467.2,276.3z">
  </path>
  <path class="st1" d="M484.6,266.3v-5.4h-5.5V285h5.5v-9.2c0-6.4,3.4-9.5,8.2-9.5h0.3v-5.8C488.9,260.3,486.1,262.7,484.6,266.3z">
  </path>
  <path class="st1" d="M525.9,221.1c0-3.2-1.7-4.2-1.7-4.2h-2.5c-4.2,0-8.3-4.2-8.3-8.4v-73.5c0,0-0.2-2.2-2.5-2.2h-6.4
		c-1.2,0-2.2,1-2.2,1l-8.9,11.6c-1,1.4-2.2,0-2.2,0v0c-5.9-7-15.9-15.6-33.9-15.6c-27,0-52.6,19.6-52.6,55.6
		c0,33.6,22.1,53.5,49.3,53.5c15.5,0,25.3-6.5,33-16.5v12.4c0,0,0.1,2.8,3.3,3.5c2.9,0.6,5.1-0.3,5.1-0.3l28.8-12.3
		C524.2,225.9,525.9,224.4,525.9,221.1z M459.5,225.2c-18.6,0-26.3-18.4-26.3-40.7c0-22.4,7.7-40.7,26.3-40.7s26.3,18.4,26.3,40.7
		C485.8,206.9,478.1,225.2,459.5,225.2z">
  </path>
  <g>
   <path class="st1" d="M525.3,265l-1.3-0.3c-0.5-0.1-0.8-0.2-1-0.3c-0.2-0.1-0.4-0.3-0.4-0.6c0-0.3,0.1-0.5,0.4-0.7s0.6-0.2,1-0.2
			c0.4,0,0.7,0.1,0.9,0.2c0.4,0.2,0.6,0.5,0.6,1h1.5c0-0.8-0.3-1.4-0.9-1.8c-0.6-0.4-1.2-0.6-2-0.6c-0.9,0-1.7,0.2-2.2,0.7
			s-0.7,1-0.7,1.7c0,0.7,0.2,1.3,0.8,1.6c0.3,0.2,0.8,0.4,1.6,0.6l0.8,0.2c0.5,0.1,0.8,0.2,1,0.4c0.2,0.1,0.3,0.3,0.3,0.6
			c0,0.4-0.2,0.7-0.7,0.9c-0.2,0.1-0.5,0.1-0.9,0.1c-0.6,0-1.1-0.2-1.3-0.5c-0.1-0.2-0.2-0.4-0.3-0.8h-1.5c0,0.8,0.3,1.4,0.8,1.9
			c0.6,0.5,1.3,0.7,2.3,0.7c1,0,1.7-0.2,2.2-0.7c0.5-0.5,0.8-1,0.8-1.7c0-0.7-0.2-1.2-0.7-1.5C526.3,265.4,525.8,265.2,525.3,265z">
   </path>
   <path class="st1" d="M533.4,261.8l-1.4,5.9l-1.4-5.9h-2.3v7.5h1.5v-5.1c0-0.1,0-0.4,0-0.6c0-0.3,0-0.5,0-0.6l1.4,6.3h1.5l1.4-6.3
			c0,0.1,0,0.4,0,0.6c0,0.3,0,0.5,0,0.6v5.1h1.5v-7.5H533.4z">
   </path>
  </g>
  <path class="st1" d="M349.2,260.5c-3.9,0-6.5,0.8-9.2,2l1.5,4.4c2.2-0.9,4.2-1.5,6.9-1.5c3.8,0,5.9,1.8,5.9,5.1v0.5
		c-1.9-0.6-3.7-1-6.7-1c-5.6,0-9.8,2.5-9.8,7.9v0.1c0,4.8,4,7.4,8.6,7.4c3.6,0,6.1-1.5,7.8-3.5v3h5.5v-14.3
		C359.8,264.3,356.3,260.5,349.2,260.5z M354.5,276.3c0,3-2.7,5.1-6.4,5.1c-2.6,0-4.6-1.3-4.6-3.5v-0.1c0-2.3,2-3.7,5.5-3.7
		c2.1,0,4.1,0.4,5.5,1L354.5,276.3L354.5,276.3z">
  </path>
  <path class="st1" d="M507.6,260.4c-6.9,0-11.8,5.6-11.8,12.5v0.1c0,7.4,5.4,12.5,12.3,12.5c4.4,0,7.6-1.8,9.9-4.5l-3.2-2.9
		c-1.9,1.9-3.8,2.9-6.5,2.9c-3.5,0-6.3-2.2-6.9-6.1H519c0-0.5,0.1-1,0.1-1.5C519.1,266.4,515.2,260.4,507.6,260.4z M501.3,271.3
		c0.5-3.7,2.9-6.3,6.2-6.3c3.7,0,5.7,2.8,6.1,6.3H501.3z">
  </path>
  <path class="st1" d="M437.7,280.7c-4.2,0-7.2-3.5-7.2-7.8v-0.1c0-4.2,2.9-7.7,6.9-7.7c2.8,0,4.6,1.2,6.2,3l3.4-3.7
		c-2.2-2.5-5.1-4.1-9.6-4.1c-7.2,0-12.5,5.7-12.5,12.6v0.1c0,6.8,5.3,12.4,12.4,12.4c4.7,0,7.5-1.9,9.8-4.5l-3.3-3.3
		C442.2,279.5,440.3,280.7,437.7,280.7z">
  </path>
  <rect x="366.7" y="251.7" class="st1" width="5.5" height="33.3">
  </rect>
  <path class="st1" d="M386,254.3h-5.5v6.6h-3v4.7h3v12.7c0,5.3,2.9,7.1,6.9,7.1c2,0,3.6-0.5,5-1.2v-4.5c-1.1,0.5-2.2,0.8-3.4,0.8
		c-1.9,0-3-0.9-3-3v-11.8h6.5v-4.7H386L386,254.3L386,254.3z">
  </path>
  <path class="st1" d="M411.1,260.4c-3.7,0-6,2-7.5,4.2v-12.9h-5.5V285h5.5v-13.6c0-3.7,2.2-6,5.4-6c3.3,0,5.2,2.1,5.2,5.9V285h5.5
		v-15.3C419.7,264,416.5,260.4,411.1,260.4z">
  </path>
  <path class="st2" d="M116.9,44.3c0-11.1,5.1-21.1,12.9-27.8c7.9,6.7,12.9,16.7,12.8,27.8c0,11.1-5,21.1-12.9,27.8
		C121.9,65.4,116.9,55.5,116.9,44.3 M156.1,15.9c-3.2,7.8-2.6,16.2,0.9,23.2c7.5-2.4,13.9-7.9,17.1-15.7s2.6-16.2-0.9-23.2
		C165.8,2.6,159.4,8.1,156.1,15.9 M85.5,23.2c3.2,7.8,9.6,13.4,17.1,15.8c3.6-7,4.2-15.4,1-23.2C100.3,7.9,94,2.4,86.5,0
		C82.9,7,82.3,15.4,85.5,23.2 M40.7,78.3c7.8,3.2,16.2,2.6,23.2-0.9c-2.4-7.5-7.9-13.9-15.7-17.1S32,57.6,25,61.2
		C27.4,68.7,32.9,75.1,40.7,78.3 M211.2,60.7c-7.8,3.2-13.4,9.6-15.8,17.1c7,3.6,15.4,4.2,23.2,1c7.8-3.2,13.4-9.6,15.8-17.1
		C227.5,58.1,219.1,57.4,211.2,60.7 M190.1,92.1c-11.1,0-21.1,5-27.8,12.8c6.7,7.9,16.6,12.9,27.8,12.9s21.1-5,27.8-12.8
		C211.2,97.2,201.2,92.1,190.1,92.1 M163.4,53.1c-7.9,7.9-11.4,18.4-10.6,28.7c10.3,0.9,20.9-2.6,28.8-10.5
		c7.9-7.9,11.4-18.4,10.6-28.7C181.9,41.8,171.3,45.2,163.4,53.1 M69.4,92.1c-11.1,0-21.1,5.1-27.8,12.9
		c6.7,7.9,16.7,12.9,27.8,12.8s21.1-5,27.8-12.9C90.5,97.1,80.6,92.1,69.4,92.1 M96.1,53.1c-7.9-7.9-18.5-11.3-28.8-10.5
		C66.5,52.9,70,63.5,77.9,71.3s18.5,11.3,28.8,10.5C107.5,71.5,104,60.9,96.1,53.1">
  </path>
 </g>
</svg>