<svg xmlns:dc="http://purl.org/dc/elements/1.1/" xmlns:cc="http://creativecommons.org/ns#" xmlns:rdf="http://www.w3.org/1999/02/22-rdf-syntax-ns#" xmlns:svg="http://www.w3.org/2000/svg" xmlns="http://www.w3.org/2000/svg" viewBox="0 0 184.69333 172.64" height="172.64" width="184.69333" xml:space="preserve" id="svg2" version="1.1" xmlns:xlink="http://www.w3.org/1999/xlink">
 <metadata id="metadata8">
  <rdf:RDF>
   <cc:Work rdf:about="">
    <dc:format>
     image/svg+xml
    </dc:format>
    <dc:type rdf:resource="http://purl.org/dc/dcmitype/StillImage">
    </dc:type>
   </cc:Work>
  </rdf:RDF>
 </metadata>
 <defs id="defs6">
 </defs>
 <g transform="matrix(1.3333333,0,0,-1.3333333,0,172.64)" id="g10">
  <g transform="scale(0.1)" id="g12">
   <path id="path14" style="fill:#0982c6;fill-opacity:1;fill-rule:nonzero;stroke:none" d="m 973.246,741.891 c 0,-8.696 -11.594,-20.286 -23.183,-37.672 -46.372,-57.961 -150.7,-159.391 -150.7,-414.418 0,-130.41 20.289,-185.469 20.289,-246.3322 C 819.652,14.4883 813.855,0 799.363,0 c -31.875,0 -89.836,139.109 -89.836,304.293 0,350.656 220.246,446.293 255.024,446.293 5.797,0 8.695,-2.898 8.695,-8.695 m -553.519,8.695 c 34.777,0 252.125,-95.637 252.125,-443.395 C 671.852,142 616.793,2.89844 582.016,2.89844 c -14.493,0 -20.286,14.49216 -20.286,43.47266 0,60.8589 20.286,115.9179 20.286,246.3279 0,252.129 -104.328,356.457 -150.696,414.414 -14.492,17.391 -23.183,28.981 -23.183,37.676 2.894,2.899 5.793,5.797 11.59,5.797">
   </path>
   <path id="path16" style="fill:#f8971f;fill-opacity:1;fill-rule:nonzero;stroke:none" d="m 611.109,681.008 c 0,-46.367 34.774,-81.145 81.145,-81.145 43.469,0 78.242,34.778 78.242,81.145 0,46.367 -34.773,81.144 -81.141,81.144 -40.574,0 -78.246,-34.777 -78.246,-81.144">
   </path>
   <path id="path18" style="fill:#56b948;fill-opacity:1;fill-rule:nonzero;stroke:none" d="m 692.621,1060.09 c -31.875,14.49 -63.754,43.47 -63.754,101.43 0,55.07 26.082,110.12 63.754,133.31 37.676,-23.19 63.758,-78.24 63.758,-133.31 0,-57.96 -31.879,-84.04 -63.758,-101.43 M 1376.55,164.609 c -113.02,69.551 -286.9,142 -539.027,165.188 0,-2.899 -2.898,-20.289 -2.898,-40.578 0,-8.688 0,-20.278 2.898,-20.278 246.327,-14.492 420.207,-66.66 539.027,-110.132 2.9,0 5.8,-2.887 5.8,-2.887 0,0 2.9,0 2.9,2.887 -2.9,2.902 -5.8,2.902 -8.7,5.8 M 823.031,1100.66 c -20.285,17.39 -34.773,43.47 -23.183,84.05 11.593,37.67 40.574,69.55 72.453,78.24 20.285,-26.08 28.976,-66.65 17.387,-107.22 -14.493,-37.68 -43.469,-49.27 -66.657,-55.07 M 1005.61,947.07 c -5.797,23.184 -5.797,52.164 26.08,81.14 28.98,26.09 69.55,34.78 98.53,26.09 5.8,-31.88 -11.59,-69.558 -40.57,-92.741 -31.88,-28.977 -60.86,-23.184 -84.04,-14.489 m 5.79,-231.84 c 8.7,23.184 23.19,46.368 63.76,52.165 37.67,2.898 75.35,-8.696 95.63,-34.778 -14.49,-28.98 -46.37,-49.265 -84.04,-52.164 -40.57,-5.797 -60.86,14.488 -75.35,34.777 m -66.65,-84.042 c 14.488,17.386 34.773,34.777 69.55,26.082 31.88,-5.797 60.86,-28.981 72.45,-55.063 -17.39,-20.285 -52.16,-28.98 -86.937,-23.184 -34.778,8.696 -49.266,31.879 -55.063,52.165 m -199.965,220.25 c -23.183,20.285 -43.469,52.164 -28.976,101.429 14.488,46.367 49.265,84.043 86.937,92.733 26.082,-28.98 34.777,-81.143 20.285,-127.51 -14.488,-46.367 -49.265,-63.754 -78.246,-66.652 m 86.942,-52.165 c -8.696,26.082 -5.797,60.856 28.98,89.836 31.879,28.981 78.246,40.575 113.023,28.981 5.793,-34.777 -14.492,-78.246 -46.371,-104.328 -37.671,-28.981 -69.55,-26.082 -95.632,-14.489 m 57.961,188.368 c -14.493,26.079 -26.083,63.759 2.898,107.229 26.082,40.57 72.449,69.55 113.024,66.65 17.38,-34.77 11.59,-89.84 -17.391,-130.41 -28.981,-43.469 -66.653,-49.262 -98.531,-43.469 M 1008.5,825.355 c 0,28.981 11.6,63.754 55.07,84.04 43.47,17.39 89.83,14.492 121.71,-5.793 -5.79,-34.778 -34.77,-72.454 -78.24,-92.739 -43.47,-20.285 -75.35,-5.797 -98.54,14.492 M 0,158.809 v 0 c 2.89844,-2.887 5.79688,0 8.69531,0 118.81669,43.472 292.69569,95.64 539.02769,110.132 0,2.899 2.898,14.489 2.898,20.278 0,17.39 -2.898,37.679 -2.898,40.578 C 295.598,306.609 124.613,234.16 8.69531,164.609 2.89844,161.711 0,161.711 0,158.809 m 495.559,999.821 c -11.594,37.67 -5.797,81.14 17.386,107.22 31.879,-8.69 60.86,-40.57 72.45,-78.24 11.593,-40.58 -2.895,-66.66 -23.184,-84.05 -26.082,2.9 -55.063,14.49 -66.652,55.07 M 292.699,958.664 c -28.98,26.078 -46.371,63.756 -40.574,92.736 28.98,8.69 69.555,0 98.531,-26.08 31.879,-26.086 31.879,-55.066 26.082,-81.148 -23.183,-5.797 -52.164,-11.59 -84.039,14.492 m 5.793,-278.211 c -37.672,2.899 -72.449,26.082 -86.937,52.164 20.285,23.184 57.961,37.676 95.633,34.778 40.574,-2.899 55.062,-28.981 63.757,-52.165 -11.593,-20.289 -34.777,-40.574 -72.453,-34.777 m 86.942,-98.531 c -31.879,-5.797 -66.653,2.898 -86.942,23.183 8.696,26.083 37.676,46.368 72.453,52.165 34.774,8.695 55.063,-8.696 66.653,-26.082 -5.797,-20.286 -17.387,-43.469 -52.164,-49.266 M 559.313,918.09 c -14.489,46.367 -5.793,98.53 20.289,127.51 37.671,-11.59 72.449,-49.264 86.941,-92.733 14.488,-49.265 -5.797,-81.144 -26.082,-101.429 -31.879,2.898 -66.656,20.285 -81.148,66.652 M 457.883,813.762 c -31.875,28.98 -52.164,69.551 -46.367,104.328 34.777,11.594 78.246,0 113.023,-28.981 34.774,-28.98 34.774,-63.754 28.981,-89.836 -28.981,-11.593 -60.86,-14.492 -95.637,14.489 m -60.856,217.348 c -26.082,40.57 -31.879,92.74 -17.39,130.41 40.574,0 84.043,-26.08 113.023,-66.65 28.981,-43.47 17.387,-78.25 0,-107.229 -31.879,-5.793 -69.551,0 -95.633,43.469 M 275.309,810.863 c -40.571,20.285 -72.45,57.961 -78.246,92.739 31.878,20.285 81.144,23.183 121.718,2.898 43.469,-20.289 55.063,-52.164 55.063,-84.043 -23.188,-17.391 -55.063,-31.879 -98.535,-11.594">
   </path>
  </g>
 </g>
</svg>