<svg version="1.1" id="Layer_1" xmlns:sketch="http://www.bohemiancoding.com/sketch/ns" xmlns="http://www.w3.org/2000/svg" xmlns:xlink="http://www.w3.org/1999/xlink" x="0px" y="0px" viewBox="0 0 57.6 53.5" style="enable-background:new 0 0 57.6 53.5;" xml:space="preserve">
 <style type="text/css">
  .st0{fill:#006BA6;}
 </style>
 <g id="Home" sketch:type="MSPage">
  <g id="Home-Copy" transform="translate(-75.000000, -58.000000)" sketch:type="MSArtboardGroup">
   <g id="_x31_400-expanded" transform="translate(-1.500000, 0.000000)" sketch:type="MSLayerGroup">
    <g id="top-bar" sketch:type="MSShapeGroup">
     <g id="logo" transform="translate(76.000000, 58.000000)">
      <path id="Fill-1" class="st0" d="M36.7,16.3c-0.6-0.5-1.4-1.1-2.2-1.3l-1.3,25.4l6.4-17.6C40.2,20.1,38.7,17.9,36.7,16.3">
      </path>
      <path id="Fill-2" class="st0" d="M26.2,14.7L29.9,40l3.6-25.3C31.4,13.9,28.6,13.8,26.2,14.7">
      </path>
      <path id="Fill-3" class="st0" d="M23.1,16.3c-2,1.7-3.5,3.9-2.9,6.5l6.4,17.6L25.3,15C24.5,15.2,23.7,15.7,23.1,16.3">
      </path>
      <path id="Fill-4" class="st0" d="M10.3,18.7c4.2,7.4,8.6,15.3,12.8,22.4c-1.5-6.2-3-16.5-5.2-19.4
						C15.4,18.2,10.3,18.7,10.3,18.7">
      </path>
      <path id="Fill-5" class="st0" d="M2.8,22.4l17.4,20L9.4,18.8C6.6,18.9,4.2,20.3,2.8,22.4">
      </path>
      <path id="Fill-6" class="st0" d="M39.1,27.8l-2.9,13.7c3.7-6.4,7.4-12.7,11-19.1C43.8,22.6,40.3,23.9,39.1,27.8">
      </path>
      <path id="Fill-7" class="st0" d="M48.2,22.4L39,42.7l16.1-17.5C53.3,23.3,50.9,22.4,48.2,22.4">
      </path>
      <path id="Fill-8" class="st0" d="M0.5,31.4c5.7,4.3,11.3,8.8,17,13.1L2.2,23C0.8,25.5,0.4,28.3,0.5,31.4">
      </path>
      <path id="Fill-9" class="st0" d="M57.1,27.7c-0.3-0.7-0.7-1.3-1.3-1.8L41.9,44.8c5.5-4.1,10.8-8.3,16.1-12.4
						C58.1,30.7,57.9,29.1,57.1,27.7">
      </path>
      <path id="Fill-10" class="st0" d="M0.5,40.2L15.3,47c-4.9-4.9-9.9-9.6-14.8-14.4V40.2">
      </path>
      <path id="Fill-11" class="st0" d="M58.1,40.7v-6.9l-14,13.5C48.9,45,53.3,42.9,58.1,40.7">
      </path>
      <path id="Fill-12" class="st0" d="M0.5,46.9c4.5,1,9.3,2.2,13.3,3.1L0.5,41.2V46.9">
      </path>
      <path id="Fill-13" class="st0" d="M58.1,47.3V42c-4.2,2.6-8.5,5.4-12.4,8.1L58.1,47.3">
      </path>
      <path id="Fill-14" class="st0" d="M0.5,53.5h13L0.5,48V53.5">
      </path>
      <path id="Fill-15" class="st0" d="M58.1,53.5v-5c-4.3,1.8-8,3.3-12,5H58.1">
      </path>
      <path id="Fill-16" class="st0" d="M53.6,15.6c0.1-7.8-11.3-7.8-11.1-0.1C42.4,22.7,53.9,23.1,53.6,15.6">
      </path>
      <path id="Fill-17" class="st0" d="M53.6,15.6L53.6,15.6L53.6,15.6L53.6,15.6">
      </path>
      <path id="Fill-18" class="st0" d="M16.4,11.6c0.4-7.8-11.8-7.5-11.3,0C4.7,19.4,17.1,19.5,16.4,11.6">
      </path>
      <path id="Fill-19" class="st0" d="M29.9,13.1c4.5,0.1,6.3-3.2,6.4-6.3C36.5,2,33.5,0,29.9,0c-3.6,0-6.5,2.1-6.3,6.8
						C23.7,9.5,24.8,13,29.9,13.1">
      </path>
     </g>
    </g>
   </g>
  </g>
 </g>
</svg>