<svg id="kp-logo-horizontal-white-footer" width="215" height="24" viewBox="0 0 215 24" fill="currentColor" xmlns="http://www.w3.org/2000/svg">
<path fill="#fff" d="M15.895 7.21a3.1 3.1 0 0 0-.985-.581l-.55 11.297 2.796-7.805a2.95 2.95 0 0 0-.215-1.64 2.96 2.96 0 0 0-1.046-1.27M11.277 6.535l1.641 11.281 1.602-11.28a4.63 4.63 0 0 0-3.243 0M9.922 7.195c-.461.32-.82.758-1.047 1.274a3 3 0 0 0-.215 1.636l2.797 7.805-.55-11.293c-.36.13-.696.328-.985.578M4.3 8.266c1.856 3.289 3.766 6.765 5.622 9.972-.66-2.707-1.344-7.347-2.285-8.633a4 4 0 0 0-1.512-1.062 4 4 0 0 0-1.824-.277M.996 9.918l7.621 8.898L3.898 8.32a3.6 3.6 0 0 0-1.64.446A3.6 3.6 0 0 0 .996 9.918M16.957 12.324l-1.266 6.102c1.63-2.856 3.243-5.656 4.817-8.508a3.56 3.56 0 0 0-2.168.613 3.62 3.62 0 0 0-1.383 1.793M20.96 9.918l-4.034 9.035L24 11.176a4.1 4.1 0 0 0-1.39-.946 4 4 0 0 0-1.65-.312M0 13.95c2.484 1.933 4.945 3.91 7.45 5.827l-6.727-9.55A6.8 6.8 0 0 0 0 13.949M24.875 12.297a2.7 2.7 0 0 0-.594-.824l-6.09 8.414c2.422-1.813 4.762-3.664 7.086-5.52a4.1 4.1 0 0 0-.402-2.07M0 17.832l6.496 3.016C4.344 18.684 2.164 16.586 0 14.449ZM25.277 18.063v-3.086l-6.132 5.992c2.085-.961 4.007-1.907 6.132-2.907M0 20.836c1.95.43 4.035.984 5.848 1.352L0 18.305ZM25.277 21.012V18.64c-1.843 1.18-3.738 2.398-5.445 3.629ZM.012 23.785h5.715L.012 21.32ZM25.281 23.785V21.54c-1.883.809-3.511 1.488-5.285 2.246Zm0 0"/><path fill="#fff" d="M23.3 6.926a2.5 2.5 0 0 0-.128-.996 2.5 2.5 0 0 0-.516-.86c-.23-.25-.508-.449-.816-.582a2.41 2.41 0 0 0-1.957 0 2.4 2.4 0 0 0-.817.582 2.5 2.5 0 0 0-.515.86c-.11.32-.156.66-.13.996-.042 3.152 5 3.328 4.88 0M6.98 5.14c.16-3.464-5.164-3.327-4.964 0-.188 3.438 5.285 3.493 4.964 0M12.922 5.805a2.66 2.66 0 0 0 2.02-.774c.265-.261.476-.574.613-.922.136-.347.203-.718.191-1.093A2.72 2.72 0 0 0 15.04.852a2.75 2.75 0 0 0-.957-.66A2.7 2.7 0 0 0 12.937 0a2.68 2.68 0 0 0-2.09.867c-.265.29-.464.633-.585 1.004-.117.375-.157.77-.11 1.16-.02.371.036.742.168 1.09.133.348.336.66.598.926.262.262.574.465.922.594.344.132.715.187 1.082.164M57.297 10.105h-2.328v13.543h2.328ZM46.727 10.105l-3.938 11.54-3.793-4.922 5.121-6.602H41.43l-4.762 6.426v-6.442h-2.367v13.532h2.328V16.98l4.922 6.68h2.824l1.25-3.906h4.934l1.347 3.894h2.434L49.7 10.121Zm-.536 7.754 1.786-5.617 1.855 5.617ZM132.691 19.914l-2.324-9.809h-4.035v13.532h2.285V12.094l2.961 11.543h2.324l2.895-11.461v11.527h2.258V10.172h-4.035ZM144.902 10.094 140.25 23.62h2.285l1.25-3.91h4.938l1.343 3.91h2.434l-4.664-13.527Zm-.535 7.75 1.785-5.668 1.871 5.601ZM161.86 20.55l-5.38-10.456h-3.066V23.62h2.191V13.434l5.274 10.199h3.172V10.105h-2.246ZM205.887 21.645h-5.528v-3.801h4.032v-1.961h-4.032v-3.828h5.055v-1.961h-7.34V23.62h7.824ZM184.719 10.094h-.418V20.66l-5.38-10.566h-3.038v11.55h-7.059v-3.8h4.035v-1.961h-4.035v-3.828h5.055v-1.961h-7.356V23.62h11.567V13.324l5.27 10.309h3.175V12.176h4.031v11.5h2.34v-11.5h4.035v-2.082ZM122.93 16.828a3.81 3.81 0 0 0 1.348-2.879 3.7 3.7 0 0 0-.313-1.574 3.7 3.7 0 0 0-.942-1.297 5.58 5.58 0 0 0-3.898-.984h-3.898v11.55h-7.18v-3.8h4.031v-1.961h-4.031v-3.828h5.055v-1.961h-7.356V23.62h11.738v-5.734h1.157c1.062 1.687 3.336 5.773 3.336 5.773h2.77l-3.618-5.965a3.9 3.9 0 0 0 1.8-.867m-5.38-.918v-3.828h1.966c1.761 0 2.472.703 2.472 1.879s-.699 1.934-2.472 1.934ZM86.262 16.828a3.8 3.8 0 0 0 .988-1.289c.234-.5.355-1.043.355-1.59a3.75 3.75 0 0 0-.308-1.574 3.7 3.7 0 0 0-.942-1.297 5.58 5.58 0 0 0-3.898-.984h-3.902v11.55h-7.18v-3.8h4.035v-1.961h-4.035v-3.828h5.059v-1.961h-7.371V23.62h11.753v-5.734h1.211c1.063 1.687 3.332 5.773 3.332 5.773h2.72l-3.618-5.965a3.9 3.9 0 0 0 1.8-.867m-5.38-.918v-3.828h1.966c1.761 0 2.472.703 2.472 1.879s-.699 1.934-2.472 1.934ZM103.055 11.121a5.6 5.6 0 0 0-3.899-1.016h-3.898V23.66h2.34v-5.586h1.57a5.5 5.5 0 0 0 3.887-1.054 3.9 3.9 0 0 0 .945-1.34 3.9 3.9 0 0 0 .32-1.61 3.902 3.902 0 0 0-1.266-2.95m-3.551 4.977h-1.922v-4.059h1.922c1.75 0 2.476.785 2.476 1.977 0 1.191-.765 2.082-2.476 2.082M64.09 15.746c-1.832-.676-2.692-1.187-2.692-2.258 0-.812.82-1.746 2.434-1.746a6.7 6.7 0 0 1 2.906.703v-1.933a7.05 7.05 0 0 0-2.863-.637c-2.879 0-4.871 1.637-4.871 3.844 0 1.96 1.492 3.136 3.754 3.922 1.746.62 2.5 1.246 2.5 2.3 0 1.055-.969 1.95-2.567 1.95a7.5 7.5 0 0 1-3.671-.989V23c1.093.527 2.292.8 3.507.797 3.485 0 5.125-1.879 5.125-4.059s-1.21-3.113-3.562-3.992M208.023 21.254a2.22 2.22 0 0 1 2.684-2.129 2.238 2.238 0 0 1 .762 4.043c-.364.242-.79.371-1.227.371a2.1 2.1 0 0 1-.863-.172 2.2 2.2 0 0 1-.73-.496 2.24 2.24 0 0 1-.626-1.617m2.22 2.707a2.7 2.7 0 0 0 1.472-.496 2.72 2.72 0 0 0 .32-4.152 2.68 2.68 0 0 0-4.113.445c-.293.445-.45.965-.45 1.496a2.7 2.7 0 0 0 .801 1.969c.258.257.567.457.907.59.336.136.699.199 1.062.187Zm-.579-2.531h.55l.837 1.351h.535l-.899-1.351a.825.825 0 0 0 .82-.867c0-.622-.362-.891-1.116-.891h-1.2v3.164h.473Zm0-.407v-.972h.645c.336 0 .687.066.687.457 0 .394-.363.515-.766.515Zm0 0"/>
</svg>